<?xml version="1.0" encoding="utf-8"?>
<!-- Generator: Adobe Illustrator 23.0.1, SVG Export Plug-In . SVG Version: 6.00 Build 0)  -->
<svg version="1.1" id="Capa_1" xmlns="http://www.w3.org/2000/svg" xmlns:xlink="http://www.w3.org/1999/xlink" x="0px" y="0px"
	 viewBox="0 0 30 32" style="enable-background:new 0 0 30 32;" xml:space="preserve">
<style type="text/css">
	.st0{fill:#FFFFFF;}
</style>
<path class="st0" d="M8.3,8.6c3.5-3.5,8.9-4,12.9-1.5c-1.4,1.4-3,2.9-3,2.9c-1.1,1.3,0.1,2.1,0.8,2.1h7.4c0.4,0,0.7,0,0.7,0
	s0.3,0,0.7,0h1.4c0.4,0,0.7-0.3,0.7-0.7V1.3c0-0.9-1-1.8-2-0.8c0,0-1.7,1.7-3,2.9C18.7-1.1,10-0.6,4.5,5C1.3,8.2-0.2,12.5,0,16.7
	h5.3C5.1,13.8,6.1,10.9,8.3,8.6z"/>
<path class="st0" d="M24.7,15.3c0.2,2.9-0.8,5.9-3,8.1c-3.5,3.5-8.9,4-12.9,1.5c1.4-1.4,3-2.9,3-2.9c1.1-1.3-0.1-2.1-0.8-2.1H3.6
	c-0.4,0-0.7,0-0.7,0s-0.3,0-0.7,0H0.7c-0.4,0-0.7,0.3-0.7,0.7v10.2c0,0.9,1,1.8,2,0.8c0,0,1.7-1.7,3-2.9c6.2,4.5,14.9,4,20.4-1.6
	c3.2-3.2,4.8-7.6,4.6-11.8L24.7,15.3L24.7,15.3z"/>
</svg>
