<?xml version="1.0" encoding="utf-8"?>
<!-- Generator: Adobe Illustrator 19.2.1, SVG Export Plug-In . SVG Version: 6.00 Build 0)  -->
<svg version="1.1" id="Layer_1" xmlns="http://www.w3.org/2000/svg" xmlns:xlink="http://www.w3.org/1999/xlink" x="0px" y="0px"
	 viewBox="0 0 100 81.2" style="enable-background:new 0 0 100 81.2;" xml:space="preserve">
<style type="text/css">
	.st0{fill:#FFFFFF;}
</style>
<g>
	<path class="st0" d="M100,9.6c-2.8,4.1-6.3,7.7-10.3,10.6c0,0.6,0.1,1.5,0.1,2.7c0,5.5-0.8,11-2.4,16.5c-1.6,5.5-4.1,10.7-7.3,15.8
		c-3.3,5-7.2,9.5-11.7,13.4c-4.5,3.9-10,7-16.4,9.3s-13.2,3.5-20.5,3.5C20,81.2,9.5,78.2,0,72c1.5,0.2,3.1,0.3,4.9,0.3
		c9.5,0,18-2.9,25.4-8.8c-4.4-0.1-8.4-1.4-11.9-4.1c-3.5-2.6-5.9-6-7.2-10.1c1.4,0.2,2.7,0.3,3.9,0.3c1.8,0,3.6-0.2,5.4-0.7
		c-4.7-1-8.7-3.3-11.8-7.1c-3.1-3.7-4.7-8.1-4.7-13v-0.3c2.9,1.6,6,2.5,9.3,2.6c-2.8-1.9-5-4.3-6.7-7.3c-1.6-3-2.5-6.3-2.5-9.8
		c0-3.7,0.9-7.2,2.8-10.3c5.1,6.3,11.3,11.3,18.7,15.1c7.3,3.8,15.2,5.9,23.6,6.3c-0.3-1.6-0.5-3.2-0.5-4.7c0-5.7,2-10.5,6-14.5
		s8.8-6,14.5-6c5.9,0,10.9,2.2,15,6.5c4.6-0.9,8.9-2.5,13-4.9c-1.6,4.9-4.6,8.6-9,11.3C92.1,12.4,96.1,11.3,100,9.6z"/>
</g>
</svg>
