<?xml version="1.0" encoding="utf-8"?>
<!-- Generator: Adobe Illustrator 19.2.1, SVG Export Plug-In . SVG Version: 6.00 Build 0)  -->
<svg version="1.1" id="Layer_1" xmlns="http://www.w3.org/2000/svg" xmlns:xlink="http://www.w3.org/1999/xlink" x="0px" y="0px"
	 viewBox="0 0 580 200" style="enable-background:new 0 0 580 200;" xml:space="preserve">
<style type="text/css">
	.st0{opacity:0.7;}
	.st1{fill:#1159BD;}
</style>
<path class="st0" d="M70.8,0.9L56.2,61.4h-7.6L35.4,14.5L23.2,61.4h-7.8L0,0.9h7.9L20,50l12.8-49H39l13.8,49l11.3-49H70.8z"/>
<path class="st0" d="M98.9,61.4h-7.6V0.9h21.5c6.7,0,11.7,1.8,14.8,5.5c3.2,3.6,4.8,7.8,4.8,12.5c0,5.2-1.7,9.5-5.2,12.9
	c-3.5,3.4-8,5.1-13.6,5.1H98.9V61.4z M98.9,30.6h13.9c3.6,0,6.5-1.1,8.6-3.2c2.2-2.1,3.3-5,3.3-8.5c0-3-1-5.7-2.9-8.1
	c-2-2.4-4.8-3.5-8.5-3.5H98.9V30.6z"/>
<path d="M185.9,38.3l17,1c-0.8,7.4-3.5,13.1-8.2,17.1c-4.7,4-10.4,5.9-17.3,5.9c-8.2,0-14.8-2.7-19.9-8.2
	c-5.1-5.4-7.6-12.9-7.6-22.5c0-9.5,2.4-17.1,7.2-23c4.8-5.8,11.5-8.7,20-8.7c8,0,14.2,2.2,18.5,6.6c4.3,4.4,6.7,10.3,7.3,17.6
	l-17.3,0.9c0-4-0.8-7-2.3-8.8c-1.6-1.8-3.4-2.7-5.5-2.7c-5.9,0-8.8,5.9-8.8,17.6c0,6.6,0.8,11.1,2.3,13.4c1.5,2.4,3.7,3.5,6.4,3.5
	C182.6,48.4,185.3,45,185.9,38.3z"/>
<path d="M257.1,61.4l-3.4-11.9h-16.2l-3.6,11.9h-15.1l18.7-60.5h19.6l19,60.5H257.1z M240.6,36.3h9.8l-4.9-17.6L240.6,36.3z"/>
<path d="M360.2,0.9v60.5H343V18.2l-11.2,43.3H320l-11.6-43.3v43.3h-13.9V0.9h24.3l8.8,32.1l8.4-32.1H360.2z"/>
<path d="M402.8,39.4v22h-18.8V0.9h25.8c6.4,0,11.3,0.7,14.7,2.2c3.4,1.5,6,3.7,8,6.8c2,3,2.9,6.5,2.9,10.2c0,5.8-2,10.4-6,14
	c-4,3.5-9.4,5.3-16.1,5.3H402.8z M402.5,26.5h6.2c5.5,0,8.2-2,8.2-6c0-3.8-2.5-5.7-7.6-5.7h-6.8V26.5z"/>
<path d="M505.6,0.9V41c0,7.6-2.3,13.1-6.8,16.4c-4.5,3.3-10.4,5-17.6,5c-7.6,0-13.7-1.6-18.4-4.8c-4.6-3.2-6.9-8.4-6.9-15.6v-41
	h18.9v38.9c0,2.9,0.6,5,1.8,6.3c1.2,1.3,3.2,2,5.9,2c2.2,0,4.1-0.5,5.5-1.4c1.4-1,2.3-2,2.6-3.3c0.3-1.2,0.4-3.6,0.4-7.1V0.9H505.6z
	"/>
<path d="M525.7,43.9l17.2-3.1c1.4,4.9,5.2,7.3,11.2,7.3c4.7,0,7-1.2,7-3.7c0-1.3-0.5-2.3-1.6-3c-1.1-0.7-3-1.4-5.8-1.9
	c-10.6-2-17.4-4.7-20.4-8c-3-3.3-4.5-7.1-4.5-11.6c0-5.7,2.2-10.4,6.5-14.2c4.3-3.8,10.6-5.7,18.7-5.7c12.3,0,20.5,4.9,24.4,14.8
	L563,19.5c-1.6-4-4.8-6.1-9.7-6.1c-4,0-6.1,1.3-6.1,3.8c0,1.1,0.5,2,1.4,2.6c0.9,0.6,2.7,1.2,5.3,1.8c7.2,1.5,12.4,2.9,15.4,4.1
	c3,1.2,5.6,3.2,7.6,6c2,2.9,3.1,6.2,3.1,10.1c0,6.1-2.5,11.1-7.4,14.9c-5,3.8-11.5,5.7-19.5,5.7C538.3,62.4,529.2,56.2,525.7,43.9z"
	/>
<g class="st0">
	<path d="M17.8,199.3h-2.1l-3.6-12c-0.2-0.5-0.4-1.2-0.6-2c-0.2-0.8-0.3-1.3-0.3-1.5c-0.2,1.1-0.5,2.3-0.9,3.6l-3.5,12H4.8l-4.8-18
		h2.2l2.8,11.1c0.4,1.6,0.7,3,0.9,4.2c0.2-1.5,0.5-3,1-4.4l3.2-10.9h2.2l3.4,11c0.4,1.3,0.7,2.7,1,4.3c0.2-1.2,0.5-2.6,0.9-4.3
		l2.8-11.1h2.2L17.8,199.3z"/>
	<path d="M39.4,199.3h-2.1v-8.5h-9.5v8.5h-2.1v-18h2.1v7.6h9.5v-7.6h2.1V199.3z"/>
	<path d="M54.6,199.3h-10v-18h10v1.9h-7.9v5.8h7.5v1.8h-7.5v6.6h7.9V199.3z"/>
	<path d="M60.9,191.8v7.5h-2.1v-18h4.9c2.2,0,3.8,0.4,4.9,1.3c1.1,0.8,1.6,2.1,1.6,3.8c0,2.4-1.2,4-3.6,4.8l4.9,8.1H69l-4.4-7.5
		H60.9z M60.9,190.1h2.9c1.5,0,2.6-0.3,3.2-0.9c0.7-0.6,1-1.5,1-2.6c0-1.2-0.4-2-1.1-2.6c-0.7-0.5-1.8-0.8-3.4-0.8h-2.7V190.1z"/>
	<path d="M84.6,199.3h-10v-18h10v1.9h-7.9v5.8h7.5v1.8h-7.5v6.6h7.9V199.3z"/>
	<path d="M111.3,199.3h-2.1l-3.6-12c-0.2-0.5-0.4-1.2-0.6-2c-0.2-0.8-0.3-1.3-0.3-1.5c-0.2,1.1-0.5,2.3-0.9,3.6l-3.5,12h-2.1
		l-4.8-18h2.2l2.8,11.1c0.4,1.6,0.7,3,0.9,4.2c0.2-1.5,0.5-3,1-4.4l3.2-10.9h2.2l3.4,11c0.4,1.3,0.7,2.7,1,4.3
		c0.2-1.2,0.5-2.6,0.9-4.3l2.8-11.1h2.2L111.3,199.3z"/>
	<path d="M134.8,190.3c0,2.9-0.7,5.1-2.2,6.8c-1.5,1.6-3.5,2.5-6.1,2.5c-2.6,0-4.7-0.8-6.1-2.4c-1.4-1.6-2.2-3.9-2.2-6.9
		c0-2.9,0.7-5.2,2.2-6.8c1.4-1.6,3.5-2.4,6.1-2.4c2.6,0,4.6,0.8,6,2.5C134.1,185.2,134.8,187.4,134.8,190.3z M120.5,190.3
		c0,2.4,0.5,4.3,1.6,5.5c1,1.3,2.5,1.9,4.5,1.9c2,0,3.5-0.6,4.5-1.9c1-1.3,1.5-3.1,1.5-5.5c0-2.4-0.5-4.3-1.5-5.5
		c-1-1.2-2.5-1.9-4.5-1.9c-2,0-3.5,0.6-4.5,1.9C121,186.1,120.5,187.9,120.5,190.3z"/>
	<path d="M141.2,191.8v7.5h-2.1v-18h4.9c2.2,0,3.8,0.4,4.9,1.3c1.1,0.8,1.6,2.1,1.6,3.8c0,2.4-1.2,4-3.6,4.8l4.9,8.1h-2.5l-4.4-7.5
		H141.2z M141.2,190.1h2.9c1.5,0,2.6-0.3,3.2-0.9c0.7-0.6,1-1.5,1-2.6c0-1.2-0.4-2-1.1-2.6c-0.7-0.5-1.8-0.8-3.4-0.8h-2.7V190.1z"/>
	<path d="M169.3,190.2c0,3-0.8,5.2-2.4,6.8c-1.6,1.6-3.9,2.4-7,2.4h-5v-18h5.5c2.8,0,5,0.8,6.5,2.3
		C168.5,185.2,169.3,187.4,169.3,190.2z M167,190.2c0-2.3-0.6-4.1-1.8-5.3c-1.2-1.2-2.9-1.8-5.2-1.8h-3v14.4h2.5
		c2.5,0,4.4-0.6,5.6-1.8C166.4,194.5,167,192.6,167,190.2z"/>
	<path d="M184.9,186.6c0,1.8-0.6,3.2-1.9,4.2s-3,1.5-5.3,1.5h-2.1v7.1h-2.1v-18h4.7C182.7,181.3,184.9,183.1,184.9,186.6z
		 M175.6,190.5h1.9c1.9,0,3.2-0.3,4-0.9c0.8-0.6,1.2-1.6,1.2-2.9c0-1.2-0.4-2.1-1.2-2.7c-0.8-0.6-2-0.9-3.6-0.9h-2.3V190.5z"/>
	<path d="M191,191.8v7.5h-2.1v-18h4.9c2.2,0,3.8,0.4,4.9,1.3c1.1,0.8,1.6,2.1,1.6,3.8c0,2.4-1.2,4-3.6,4.8l4.9,8.1h-2.5l-4.4-7.5
		H191z M191,190.1h2.9c1.5,0,2.6-0.3,3.2-0.9c0.7-0.6,1-1.5,1-2.6c0-1.2-0.4-2-1.1-2.6c-0.7-0.5-1.8-0.8-3.4-0.8H191V190.1z"/>
	<path d="M214.8,199.3h-10v-18h10v1.9h-7.9v5.8h7.5v1.8h-7.5v6.6h7.9V199.3z"/>
	<path d="M229.1,194.5c0,1.6-0.6,2.8-1.7,3.7c-1.1,0.9-2.7,1.3-4.7,1.3c-2.1,0-3.8-0.3-4.9-0.8v-2c0.7,0.3,1.5,0.6,2.4,0.7
		c0.9,0.2,1.7,0.3,2.6,0.3c1.4,0,2.4-0.3,3.1-0.8c0.7-0.5,1.1-1.3,1.1-2.2c0-0.6-0.1-1.1-0.4-1.5c-0.3-0.4-0.7-0.8-1.3-1.1
		c-0.6-0.3-1.5-0.7-2.7-1.1c-1.7-0.6-2.9-1.3-3.6-2.1c-0.7-0.8-1.1-1.9-1.1-3.2c0-1.4,0.5-2.5,1.6-3.3c1-0.8,2.4-1.2,4.1-1.2
		c1.8,0,3.4,0.3,4.9,1l-0.7,1.8c-1.5-0.6-2.9-0.9-4.3-0.9c-1.1,0-2,0.2-2.6,0.7c-0.6,0.5-0.9,1.1-0.9,2c0,0.6,0.1,1.1,0.3,1.5
		c0.2,0.4,0.6,0.8,1.2,1.1c0.5,0.3,1.4,0.7,2.5,1.1c1.9,0.7,3.2,1.4,3.9,2.2C228.8,192.3,229.1,193.3,229.1,194.5z"/>
	<path d="M243.2,194.5c0,1.6-0.6,2.8-1.7,3.7c-1.1,0.9-2.7,1.3-4.7,1.3c-2.1,0-3.8-0.3-4.9-0.8v-2c0.7,0.3,1.5,0.6,2.4,0.7
		c0.9,0.2,1.7,0.3,2.6,0.3c1.4,0,2.4-0.3,3.1-0.8c0.7-0.5,1.1-1.3,1.1-2.2c0-0.6-0.1-1.1-0.4-1.5c-0.3-0.4-0.7-0.8-1.3-1.1
		c-0.6-0.3-1.5-0.7-2.7-1.1c-1.7-0.6-2.9-1.3-3.6-2.1c-0.7-0.8-1.1-1.9-1.1-3.2c0-1.4,0.5-2.5,1.6-3.3c1-0.8,2.4-1.2,4.1-1.2
		c1.8,0,3.4,0.3,4.9,1l-0.7,1.8c-1.5-0.6-2.9-0.9-4.3-0.9c-1.1,0-2,0.2-2.6,0.7c-0.6,0.5-0.9,1.1-0.9,2c0,0.6,0.1,1.1,0.3,1.5
		c0.2,0.4,0.6,0.8,1.2,1.1c0.5,0.3,1.4,0.7,2.5,1.1c1.9,0.7,3.2,1.4,3.9,2.2C242.9,192.3,243.2,193.3,243.2,194.5z"/>
	<path d="M261.9,199.3l-6.1-15.9h-0.1c0.1,1.3,0.2,2.8,0.2,4.5v11.4h-1.9v-18h3.1l5.7,14.8h0.1l5.7-14.8h3.1v18h-2.1v-11.6
		c0-1.3,0.1-2.8,0.2-4.3h-0.1l-6.1,15.9H261.9z"/>
	<path d="M286.9,199.3h-10v-18h10v1.9H279v5.8h7.5v1.8H279v6.6h7.9V199.3z"/>
	<path d="M301.2,199.3h-10v-18h10v1.9h-7.9v5.8h7.5v1.8h-7.5v6.6h7.9V199.3z"/>
	<path d="M311,199.3h-2.1v-16.1h-5.7v-1.9h13.5v1.9H311V199.3z"/>
	<path d="M329.8,194.5c0,1.6-0.6,2.8-1.7,3.7c-1.1,0.9-2.7,1.3-4.7,1.3c-2.1,0-3.8-0.3-4.9-0.8v-2c0.7,0.3,1.5,0.6,2.4,0.7
		c0.9,0.2,1.7,0.3,2.6,0.3c1.4,0,2.4-0.3,3.1-0.8c0.7-0.5,1.1-1.3,1.1-2.2c0-0.6-0.1-1.1-0.4-1.5c-0.3-0.4-0.7-0.8-1.3-1.1
		c-0.6-0.3-1.5-0.7-2.7-1.1c-1.7-0.6-2.9-1.3-3.6-2.1c-0.7-0.8-1.1-1.9-1.1-3.2c0-1.4,0.5-2.5,1.6-3.3c1-0.8,2.4-1.2,4.1-1.2
		c1.8,0,3.4,0.3,4.9,1l-0.7,1.8c-1.5-0.6-2.9-0.9-4.3-0.9c-1.1,0-2,0.2-2.6,0.7c-0.6,0.5-0.9,1.1-0.9,2c0,0.6,0.1,1.1,0.3,1.5
		c0.2,0.4,0.6,0.8,1.2,1.1c0.5,0.3,1.4,0.7,2.5,1.1c1.9,0.7,3.2,1.4,3.9,2.2C329.4,192.3,329.8,193.3,329.8,194.5z"/>
	<path d="M354.1,199.3H352v-8.5h-9.5v8.5h-2.1v-18h2.1v7.6h9.5v-7.6h2.1V199.3z"/>
	<path d="M359.3,199.3v-18h2.1v18H359.3z"/>
	<path d="M374.5,189.9h6.1v8.7c-1,0.3-1.9,0.5-2.9,0.7c-1,0.2-2.1,0.2-3.4,0.2c-2.7,0-4.8-0.8-6.4-2.4c-1.5-1.6-2.3-3.9-2.3-6.8
		c0-1.9,0.4-3.5,1.1-4.9c0.8-1.4,1.8-2.5,3.2-3.2c1.4-0.7,3.1-1.1,5-1.1c1.9,0,3.7,0.4,5.4,1.1l-0.8,1.8c-1.6-0.7-3.2-1-4.7-1
		c-2.2,0-3.9,0.7-5.1,2c-1.2,1.3-1.8,3.1-1.8,5.4c0,2.4,0.6,4.3,1.8,5.5c1.2,1.3,2.9,1.9,5.2,1.9c1.2,0,2.5-0.1,3.7-0.4v-5.5h-4
		V189.9z"/>
	<path d="M398.8,199.3h-2.1v-8.5h-9.5v8.5h-2.1v-18h2.1v7.6h9.5v-7.6h2.1V199.3z"/>
	<path d="M414,199.3h-10v-18h10v1.9h-7.9v5.8h7.5v1.8h-7.5v6.6h7.9V199.3z"/>
	<path d="M420.3,191.8v7.5h-2.1v-18h4.9c2.2,0,3.8,0.4,4.9,1.3c1.1,0.8,1.6,2.1,1.6,3.8c0,2.4-1.2,4-3.6,4.8l4.9,8.1h-2.5l-4.4-7.5
		H420.3z M420.3,190.1h2.9c1.5,0,2.6-0.3,3.2-0.9c0.7-0.6,1-1.5,1-2.6c0-1.2-0.4-2-1.1-2.6c-0.7-0.5-1.8-0.8-3.4-0.8h-2.7V190.1z"/>
	<path d="M450.9,199.3h-10v-18h10v1.9H443v5.8h7.5v1.8H443v6.6h7.9V199.3z"/>
	<path d="M469.5,190.2c0,3-0.8,5.2-2.4,6.8c-1.6,1.6-3.9,2.4-7,2.4h-5v-18h5.5c2.8,0,5,0.8,6.5,2.3
		C468.7,185.2,469.5,187.4,469.5,190.2z M467.3,190.2c0-2.3-0.6-4.1-1.8-5.3c-1.2-1.2-2.9-1.8-5.2-1.8h-3v14.4h2.5
		c2.5,0,4.4-0.6,5.6-1.8C466.6,194.5,467.3,192.6,467.3,190.2z"/>
	<path d="M487.3,181.3V193c0,2-0.6,3.7-1.9,4.8c-1.2,1.2-2.9,1.8-5.1,1.8s-3.8-0.6-5-1.8c-1.2-1.2-1.8-2.8-1.8-4.9v-11.6h2.1v11.7
		c0,1.5,0.4,2.7,1.2,3.5c0.8,0.8,2,1.2,3.6,1.2c1.5,0,2.7-0.4,3.5-1.2c0.8-0.8,1.2-2,1.2-3.5v-11.7H487.3z"/>
	<path d="M500,183c-2,0-3.5,0.7-4.7,2c-1.1,1.3-1.7,3.1-1.7,5.4c0,2.4,0.6,4.2,1.7,5.5c1.1,1.3,2.7,1.9,4.7,1.9
		c1.3,0,2.7-0.2,4.3-0.7v1.8c-1.2,0.5-2.8,0.7-4.6,0.7c-2.6,0-4.7-0.8-6.1-2.4c-1.4-1.6-2.2-3.9-2.2-6.8c0-1.9,0.3-3.5,1-4.9
		c0.7-1.4,1.7-2.5,3-3.2c1.3-0.8,2.8-1.1,4.6-1.1c1.9,0,3.5,0.3,4.9,1l-0.9,1.8C502.7,183.3,501.4,183,500,183z"/>
	<path d="M519.8,199.3l-2.2-5.7h-7.2l-2.2,5.7H506l7.1-18h1.8l7.1,18H519.8z M516.9,191.7l-2.1-5.6c-0.3-0.7-0.5-1.6-0.8-2.6
		c-0.2,0.8-0.4,1.7-0.8,2.6l-2.1,5.6H516.9z"/>
	<path d="M530.2,199.3h-2.1v-16.1h-5.7v-1.9h13.5v1.9h-5.7V199.3z"/>
	<path d="M538.8,199.3v-18h2.1v18H538.8z"/>
	<path d="M561.7,190.3c0,2.9-0.7,5.1-2.2,6.8c-1.5,1.6-3.5,2.5-6.1,2.5c-2.6,0-4.7-0.8-6.1-2.4c-1.4-1.6-2.2-3.9-2.2-6.9
		c0-2.9,0.7-5.2,2.2-6.8c1.4-1.6,3.5-2.4,6.1-2.4c2.6,0,4.6,0.8,6,2.5S561.7,187.4,561.7,190.3z M547.4,190.3c0,2.4,0.5,4.3,1.6,5.5
		c1,1.3,2.5,1.9,4.5,1.9c2,0,3.5-0.6,4.5-1.9c1-1.3,1.5-3.1,1.5-5.5c0-2.4-0.5-4.3-1.5-5.5c-1-1.2-2.5-1.9-4.5-1.9
		c-2,0-3.5,0.6-4.5,1.9C547.9,186.1,547.4,187.9,547.4,190.3z"/>
	<path d="M580,199.3h-2.4l-9.8-15.1h-0.1c0.1,1.8,0.2,3.4,0.2,4.9v10.2H566v-18h2.4l9.8,15h0.1c0-0.2-0.1-0.9-0.1-2.1
		s-0.1-2.1-0.1-2.6v-10.3h2V199.3z"/>
</g>
<g>
	<path class="st1" d="M52.2,169c-15.4,0-28-4.3-37.7-13C4.9,147.3,0,135.6,0,121.1c0-13.9,4.6-25.4,13.9-34.5
		C23.2,77.5,36.1,73,52.6,73c15.2,0,27.7,4.3,37.3,12.8c9.6,8.6,14.4,20,14.4,34.2c0,14.8-4.8,26.6-14.5,35.5
		C80,164.5,67.6,169,52.2,169z M52.1,147.8c5.7,0,9.8-2.1,12.2-6.3c2.5-4.2,3.7-11.9,3.7-23.1c0-16.2-5.1-24.3-15.3-24.3
		c-11,0-16.5,9.2-16.5,27.7C36.2,139.2,41.5,147.8,52.1,147.8z"/>
	<path class="st1" d="M214.6,167.5h-27.4l-30-41.1c-3.9-5.3-7.7-11.7-11.7-19.2c1.8,6,2.6,11.1,2.6,15.3v45.1h-27.3V74.4h31.8
		l25.5,34.1c5.1,6.8,8.9,12.7,11.6,17.9c-1.7-8-2.6-16.1-2.6-24.4V74.4h27.4V167.5z"/>
	<path class="st1" d="M313,144.7v22.9h-76.8V74.4h33.6v70.3H313z"/>
	<path class="st1" d="M360.8,74.4v93.1h-33.6V74.4H360.8z"/>
	<path class="st1" d="M476,167.5h-27.4l-30-41.1c-3.9-5.3-7.7-11.7-11.7-19.2c1.8,6,2.6,11.1,2.6,15.3v45.1h-27.3V74.4h31.8
		l25.5,34.1c5.1,6.8,8.9,12.7,11.6,17.9c-1.7-8-2.6-16.1-2.6-24.4V74.4H476V167.5z"/>
	<path class="st1" d="M580,145.3v22.2h-82.4V74.4H580v21.5h-49.4v13.5h40v20.7h-40v15.2H580z"/>
</g>
</svg>
