<?xml version="1.0" encoding="utf-8"?>
<!-- Generator: Adobe Illustrator 19.2.1, SVG Export Plug-In . SVG Version: 6.00 Build 0)  -->
<svg version="1.1" id="Layer_1" xmlns="http://www.w3.org/2000/svg" xmlns:xlink="http://www.w3.org/1999/xlink" x="0px" y="0px"
	 viewBox="0 0 950 330" enable-background="new 0 0 950 330" xml:space="preserve">
<g opacity="0.5">
	<path fill="#FFFFFF" d="M115.9,1.5l-23.9,99.1H79.6L58,23.7l-20.1,76.9H25.2L0,1.5h12.9l19.8,80.3l21-80.3h10.1l22.7,80.3L105,1.5
		H115.9z"/>
	<path fill="#FFFFFF" d="M162,100.6h-12.4V1.5h35.1c11,0,19.1,3,24.3,9c5.2,6,7.8,12.8,7.8,20.4c0,8.5-2.8,15.6-8.5,21.1
		c-5.7,5.6-13.1,8.3-22.3,8.3h-24V100.6z M162,50.1h22.8c5.9,0,10.6-1.8,14.2-5.3c3.6-3.5,5.4-8.1,5.4-13.9c0-4.9-1.6-9.3-4.8-13.2
		c-3.2-3.9-7.8-5.8-13.9-5.8H162V50.1z"/>
</g>
<g opacity="0.7">
	<path fill="#FFFFFF" d="M304.5,62.8l27.8,1.7c-1.3,12.2-5.8,21.5-13.5,28c-7.7,6.5-17.1,9.7-28.3,9.7c-13.5,0-24.3-4.5-32.6-13.4
		c-8.3-8.9-12.4-21.2-12.4-36.9c0-15.5,3.9-28.1,11.8-37.6C265.1,4.8,276.1,0,290.1,0c13.1,0,23.2,3.6,30.2,10.9
		c7,7.3,11,16.9,11.9,28.9l-28.4,1.5c0-6.6-1.3-11.4-3.8-14.4c-2.5-3-5.5-4.4-9-4.4c-9.6,0-14.4,9.6-14.4,28.9
		c0,10.8,1.2,18.1,3.7,22c2.5,3.9,6,5.8,10.5,5.8C299,79.2,303.5,73.7,304.5,62.8z"/>
	<path fill="#FFFFFF" d="M421.1,100.6l-5.6-19.5H389l-6,19.5h-24.7l30.6-99.1h32.2l31.1,99.1H421.1z M394.2,59.5h16l-8-28.7
		L394.2,59.5z"/>
	<path fill="#FFFFFF" d="M590,1.5v99.1h-28.2V29.8l-18.3,70.9h-19.3l-19.1-70.9v70.9h-22.8V1.5H522l14.4,52.6l13.7-52.6H590z"/>
	<path fill="#FFFFFF" d="M659.7,64.6v36h-30.9V1.5h42.3c10.6,0,18.6,1.2,24.1,3.6c5.5,2.4,9.8,6.1,13.1,11.1
		c3.2,5,4.8,10.6,4.8,16.8c0,9.4-3.3,17.1-9.9,22.9c-6.6,5.8-15.4,8.7-26.4,8.7H659.7z M659.2,43.3h10.2c9,0,13.4-3.3,13.4-9.9
		c0-6.2-4.1-9.3-12.4-9.3h-11.2V43.3z"/>
	<path fill="#FFFFFF" d="M828.2,1.5v65.6c0,12.4-3.7,21.4-11.1,26.8c-7.4,5.4-17,8.2-28.9,8.2c-12.5,0-22.5-2.6-30.1-7.8
		c-7.6-5.2-11.4-13.7-11.4-25.6V1.5h30.9v63.7c0,4.7,1,8.2,3,10.4c2,2.2,5.2,3.3,9.6,3.3c3.7,0,6.7-0.8,9-2.4
		c2.3-1.6,3.7-3.4,4.2-5.3c0.5-2,0.7-5.9,0.7-11.6v-58H828.2z"/>
	<path fill="#FFFFFF" d="M861.1,71.9l28.2-5.1c2.4,8,8.5,12,18.3,12c7.6,0,11.5-2,11.5-6.1c0-2.1-0.9-3.8-2.6-5
		c-1.8-1.2-4.9-2.2-9.5-3.2c-17.4-3.3-28.5-7.7-33.5-13.1c-4.9-5.4-7.4-11.7-7.4-19c0-9.3,3.5-17.1,10.6-23.3
		C883.8,3.1,894,0,907.3,0c20.2,0,33.5,8.1,40,24.3l-25.2,7.6c-2.6-6.6-7.9-9.9-15.9-9.9c-6.6,0-9.9,2.1-9.9,6.2
		c0,1.8,0.7,3.3,2.3,4.3c1.5,1,4.4,2,8.7,2.9c11.9,2.5,20.3,4.7,25.3,6.7c5,1.9,9.1,5.2,12.5,9.9c3.3,4.7,5,10.2,5,16.5
		c0,10-4.1,18.2-12.2,24.4c-8.1,6.2-18.8,9.3-32,9.3C881.6,102.2,866.7,92.1,861.1,71.9z"/>
</g>
<rect x="1503" y="459.4" fill="none" width="883" height="209.5"/>
<text transform="matrix(1 0 0 0.8 1597.2725 602.2595)" display="none" fill="#1159BD" font-family="'FranklinGothic-Medium'" font-size="214px">ONLINE</text>
<rect x="1503" y="213.6" fill="none" width="883" height="209.5"/>
<text transform="matrix(1 0 0 0.85 1561.4521 356.3521)" display="none" fill="#1159BD" font-family="'FranklinGothic-Heavy'" font-size="214px" letter-spacing="3">ONLINE</text>
<g>
	<path fill="#FFFFFF" d="M85.6,277.5c-25.2,0-45.8-7.1-61.7-21.3C8,241.9,0,222.9,0,199.1c0-22.8,7.6-41.6,22.8-56.5
		c15.2-14.9,36.3-22.3,63.3-22.3c25,0,45.3,7,61.1,21c15.7,14,23.6,32.7,23.6,56.1c0,24.2-7.9,43.6-23.8,58.2
		C131.1,270.2,110.6,277.5,85.6,277.5z M85.3,242.9c9.3,0,16-3.4,20-10.3c4.1-6.9,6.1-19.5,6.1-37.8c0-26.5-8.4-39.8-25.1-39.8
		c-18.1,0-27.1,15.1-27.1,45.4C59.3,228.7,68,242.9,85.3,242.9z"/>
	<path fill="#FFFFFF" d="M351.5,275.2h-44.8l-49.1-67.4c-6.3-8.6-12.7-19.1-19.1-31.5c2.9,9.8,4.3,18.2,4.3,25v73.9h-44.7V122.6
		h52.1l41.8,55.9c8.3,11.1,14.6,20.9,18.9,29.3c-2.8-13-4.2-26.4-4.2-40v-45.1h44.8V275.2z"/>
	<path fill="#FFFFFF" d="M512.6,237.7v37.4H386.8V122.6h55.1v115.1H512.6z"/>
	<path fill="#FFFFFF" d="M590.9,122.6v152.5h-55.1V122.6H590.9z"/>
	<path fill="#FFFFFF" d="M779.7,275.2h-44.8l-49.1-67.4c-6.3-8.6-12.7-19.1-19.1-31.5c2.9,9.8,4.3,18.2,4.3,25v73.9h-44.7V122.6
		h52.1l41.8,55.9c8.3,11.1,14.6,20.9,18.9,29.3c-2.8-13-4.2-26.4-4.2-40v-45.1h44.8V275.2z"/>
	<path fill="#FFFFFF" d="M950,238.7v36.4H815V122.6h135v35.2h-81V180h65.5v33.9H869v24.9H950z"/>
</g>
<path display="none" opacity="0.7" d="M1250,809.3l-25.1,104.3h-13.1l-22.8-80.9l-21.1,80.9h-13.4L1128,809.3h13.6l20.9,84.5
	l22.1-84.5h10.6l23.9,84.5l19.5-84.5H1250z"/>
<path display="none" opacity="0.7" d="M1298.6,913.6h-13.1V809.3h37c11.6,0,20.1,3.1,25.6,9.4c5.5,6.3,8.3,13.5,8.3,21.5
	c0,9-3,16.4-9,22.2c-6,5.9-13.8,8.8-23.5,8.8h-25.3V913.6z M1298.6,860.4h24c6.2,0,11.1-1.8,14.9-5.5c3.8-3.7,5.7-8.6,5.7-14.6
	c0-5.2-1.7-9.8-5-13.9c-3.4-4.1-8.2-6.1-14.6-6.1h-24.9V860.4z"/>
<path display="none" d="M1448.5,873.8l29.3,1.8c-1.4,12.8-6.1,22.6-14.2,29.4c-8.1,6.8-18,10.2-29.8,10.2
	c-14.2,0-25.6-4.7-34.3-14.1c-8.7-9.4-13.1-22.3-13.1-38.8c0-16.4,4.1-29.5,12.4-39.6c8.3-10,19.8-15.1,34.5-15.1
	c13.8,0,24.4,3.8,31.8,11.5c7.4,7.6,11.6,17.8,12.6,30.4l-29.9,1.6c0-7-1.3-12-4-15.1c-2.7-3.1-5.8-4.7-9.4-4.7
	c-10.1,0-15.1,10.1-15.1,30.4c0,11.4,1.3,19.1,3.9,23.2c2.6,4.1,6.3,6.1,11,6.1C1442.7,891.1,1447.5,885.3,1448.5,873.8z"/>
<path display="none" d="M1571.3,913.6l-5.9-20.6h-27.9l-6.3,20.6h-26l32.2-104.3h33.9l32.7,104.3H1571.3z M1542.9,870.3h16.9
	l-8.4-30.3L1542.9,870.3z"/>
<path display="none" d="M1749.1,809.3v104.3h-29.7V839l-19.3,74.6h-20.3l-20.1-74.6v74.6h-24V809.3h41.8l15.1,55.4l14.4-55.4H1749.1
	z"/>
<path display="none" d="M1822.4,875.7v37.9h-32.5V809.3h44.6c11.1,0,19.6,1.3,25.3,3.8c5.8,2.5,10.4,6.4,13.8,11.7
	c3.4,5.2,5.1,11.1,5.1,17.7c0,9.9-3.5,18-10.4,24.1c-6.9,6.1-16.2,9.2-27.7,9.2H1822.4z M1821.9,853.3h10.7
	c9.4,0,14.1-3.5,14.1-10.4c0-6.5-4.4-9.8-13.1-9.8h-11.8V853.3z"/>
<path display="none" d="M1999.8,809.3v69.1c0,13.1-3.9,22.5-11.7,28.2c-7.8,5.7-17.9,8.6-30.4,8.6c-13.1,0-23.7-2.8-31.7-8.3
	c-8-5.5-12-14.5-12-26.9v-70.8h32.6v67c0,5,1.1,8.6,3.2,10.9c2.1,2.3,5.5,3.4,10.1,3.4c3.9,0,7-0.8,9.5-2.5c2.5-1.7,3.9-3.5,4.4-5.6
	c0.5-2.1,0.7-6.2,0.7-12.2v-61.1H1999.8z"/>
<path display="none" d="M2034.4,883.4l29.7-5.3c2.5,8.4,8.9,12.6,19.3,12.6c8,0,12.1-2.1,12.1-6.4c0-2.2-0.9-4-2.8-5.2
	c-1.9-1.2-5.2-2.4-10-3.3c-18.3-3.5-30-8.1-35.2-13.7c-5.2-5.7-7.8-12.3-7.8-20c0-9.8,3.7-18,11.2-24.5c7.5-6.5,18.2-9.8,32.2-9.8
	c21.2,0,35.3,8.5,42.1,25.6l-26.5,8c-2.8-7-8.3-10.5-16.7-10.5c-7,0-10.5,2.2-10.5,6.5c0,1.9,0.8,3.4,2.4,4.5
	c1.6,1.1,4.6,2.1,9.2,3.1c12.5,2.6,21.4,5,26.6,7c5.2,2,9.6,5.5,13.1,10.4c3.5,4.9,5.3,10.7,5.3,17.4c0,10.6-4.3,19.1-12.8,25.7
	c-8.6,6.6-19.8,9.8-33.7,9.8C2056,915.2,2040.3,904.6,2034.4,883.4z"/>
<g display="none" opacity="0.7">
	<path display="inline" d="M1158.7,1151.3h-3.6l-6.3-20.8c-0.3-0.9-0.6-2.1-1-3.5c-0.4-1.4-0.6-2.2-0.6-2.5
		c-0.3,1.9-0.8,3.9-1.5,6.1l-6.1,20.6h-3.6l-8.2-31h3.8l4.9,19.1c0.7,2.7,1.2,5.1,1.5,7.3c0.4-2.6,0.9-5.1,1.7-7.6l5.6-18.8h3.8
		l5.8,19c0.7,2.2,1.3,4.7,1.7,7.4c0.3-2,0.8-4.5,1.5-7.3l4.9-19.1h3.8L1158.7,1151.3z"/>
	<path display="inline" d="M1195.8,1151.3h-3.6v-14.6h-16.3v14.6h-3.6v-31h3.6v13.2h16.3v-13.2h3.6V1151.3z"/>
	<path display="inline" d="M1222.1,1151.3h-17.3v-31h17.3v3.2h-13.7v10h12.8v3.2h-12.8v11.4h13.7V1151.3z"/>
	<path display="inline" d="M1233,1138.4v12.9h-3.6v-31h8.5c3.8,0,6.6,0.7,8.4,2.2c1.8,1.5,2.7,3.6,2.7,6.6c0,4.1-2.1,6.9-6.2,8.3
		l8.4,13.9h-4.3l-7.5-12.9H1233z M1233,1135.4h4.9c2.5,0,4.4-0.5,5.6-1.5s1.8-2.5,1.8-4.5c0-2-0.6-3.5-1.8-4.4
		c-1.2-0.9-3.1-1.4-5.8-1.4h-4.7V1135.4z"/>
	<path display="inline" d="M1273.9,1151.3h-17.3v-31h17.3v3.2h-13.7v10h12.8v3.2h-12.8v11.4h13.7V1151.3z"/>
	<path display="inline" d="M1320,1151.3h-3.6l-6.3-20.8c-0.3-0.9-0.6-2.1-1-3.5c-0.4-1.4-0.6-2.2-0.6-2.5c-0.3,1.9-0.8,3.9-1.5,6.1
		l-6.1,20.6h-3.6l-8.2-31h3.8l4.9,19.1c0.7,2.7,1.2,5.1,1.5,7.3c0.4-2.6,0.9-5.1,1.7-7.6l5.6-18.8h3.8l5.8,19
		c0.7,2.2,1.3,4.7,1.7,7.4c0.3-2,0.8-4.5,1.5-7.3l4.9-19.1h3.8L1320,1151.3z"/>
	<path display="inline" d="M1360.5,1135.8c0,5-1.3,8.9-3.8,11.7c-2.5,2.8-6,4.3-10.5,4.3c-4.6,0-8.1-1.4-10.6-4.2
		c-2.5-2.8-3.7-6.7-3.7-11.8c0-5,1.2-9,3.7-11.7c2.5-2.8,6-4.2,10.6-4.2c4.5,0,7.9,1.4,10.4,4.2S1360.5,1130.8,1360.5,1135.8z
		 M1335.8,1135.8c0,4.2,0.9,7.4,2.7,9.6c1.8,2.2,4.4,3.3,7.8,3.3c3.4,0,6-1.1,7.8-3.2c1.8-2.2,2.6-5.3,2.6-9.6
		c0-4.2-0.9-7.3-2.6-9.5c-1.7-2.2-4.3-3.2-7.7-3.2c-3.4,0-6,1.1-7.8,3.3C1336.7,1128.5,1335.8,1131.7,1335.8,1135.8z"/>
	<path display="inline" d="M1371.4,1138.4v12.9h-3.6v-31h8.5c3.8,0,6.6,0.7,8.4,2.2c1.8,1.5,2.7,3.6,2.7,6.6c0,4.1-2.1,6.9-6.2,8.3
		l8.4,13.9h-4.3l-7.5-12.9H1371.4z M1371.4,1135.4h4.9c2.5,0,4.4-0.5,5.6-1.5s1.8-2.5,1.8-4.5c0-2-0.6-3.5-1.8-4.4s-3.1-1.4-5.8-1.4
		h-4.7V1135.4z"/>
	<path display="inline" d="M1419.8,1135.5c0,5.1-1.4,9-4.2,11.7s-6.8,4.1-12,4.1h-8.6v-31h9.5c4.8,0,8.6,1.3,11.2,4
		C1418.5,1127,1419.8,1130.8,1419.8,1135.5z M1416,1135.7c0-4-1-7.1-3-9.1c-2-2-5-3.1-9-3.1h-5.2v24.8h4.4c4.3,0,7.5-1.1,9.7-3.2
		C1414.9,1142.9,1416,1139.8,1416,1135.7z"/>
	<path display="inline" d="M1446.8,1129.4c0,3.1-1.1,5.6-3.2,7.2c-2.1,1.7-5.2,2.5-9.2,2.5h-3.6v12.2h-3.6v-31h8
		C1442.9,1120.3,1446.8,1123.4,1446.8,1129.4z M1430.8,1136.1h3.2c3.2,0,5.5-0.5,6.9-1.5c1.4-1,2.1-2.7,2.1-5c0-2-0.7-3.6-2-4.6
		c-1.3-1-3.4-1.5-6.3-1.5h-4V1136.1z"/>
	<path display="inline" d="M1457.3,1138.4v12.9h-3.6v-31h8.5c3.8,0,6.6,0.7,8.4,2.2c1.8,1.5,2.7,3.6,2.7,6.6c0,4.1-2.1,6.9-6.2,8.3
		l8.4,13.9h-4.3l-7.5-12.9H1457.3z M1457.3,1135.4h4.9c2.5,0,4.4-0.5,5.6-1.5s1.8-2.5,1.8-4.5c0-2-0.6-3.5-1.8-4.4s-3.1-1.4-5.8-1.4
		h-4.7V1135.4z"/>
	<path display="inline" d="M1498.3,1151.3H1481v-31h17.3v3.2h-13.7v10h12.8v3.2h-12.8v11.4h13.7V1151.3z"/>
	<path display="inline" d="M1523.1,1143.1c0,2.7-1,4.9-3,6.4c-2,1.5-4.7,2.3-8.1,2.3c-3.7,0-6.5-0.5-8.5-1.4v-3.5
		c1.3,0.5,2.7,1,4.2,1.3c1.5,0.3,3,0.5,4.5,0.5c2.4,0,4.2-0.5,5.4-1.4c1.2-0.9,1.8-2.2,1.8-3.8c0-1.1-0.2-2-0.6-2.6
		c-0.4-0.7-1.2-1.3-2.2-1.9c-1-0.6-2.5-1.2-4.6-2c-2.9-1-4.9-2.3-6.2-3.7c-1.2-1.4-1.9-3.3-1.9-5.5c0-2.4,0.9-4.3,2.7-5.7
		c1.8-1.4,4.2-2.1,7.1-2.1c3.1,0,5.9,0.6,8.5,1.7l-1.1,3.1c-2.6-1.1-5-1.6-7.5-1.6c-1.9,0-3.4,0.4-4.5,1.2c-1.1,0.8-1.6,2-1.6,3.4
		c0,1.1,0.2,2,0.6,2.6c0.4,0.7,1.1,1.3,2,1.9c0.9,0.6,2.4,1.2,4.3,1.9c3.3,1.2,5.5,2.4,6.7,3.7
		C1522.5,1139.2,1523.1,1141,1523.1,1143.1z"/>
	<path display="inline" d="M1547.3,1143.1c0,2.7-1,4.9-3,6.4c-2,1.5-4.7,2.3-8.1,2.3c-3.7,0-6.5-0.5-8.5-1.4v-3.5
		c1.3,0.5,2.7,1,4.2,1.3c1.5,0.3,3,0.5,4.5,0.5c2.4,0,4.2-0.5,5.4-1.4c1.2-0.9,1.8-2.2,1.8-3.8c0-1.1-0.2-2-0.6-2.6
		c-0.4-0.7-1.2-1.3-2.2-1.9c-1-0.6-2.5-1.2-4.6-2c-2.9-1-4.9-2.3-6.2-3.7c-1.2-1.4-1.9-3.3-1.9-5.5c0-2.4,0.9-4.3,2.7-5.7
		c1.8-1.4,4.2-2.1,7.1-2.1c3.1,0,5.9,0.6,8.5,1.7l-1.1,3.1c-2.6-1.1-5-1.6-7.5-1.6c-1.9,0-3.4,0.4-4.5,1.2c-1.1,0.8-1.6,2-1.6,3.4
		c0,1.1,0.2,2,0.6,2.6c0.4,0.7,1.1,1.3,2,1.9c0.9,0.6,2.4,1.2,4.3,1.9c3.3,1.2,5.5,2.4,6.7,3.7
		C1546.7,1139.2,1547.3,1141,1547.3,1143.1z"/>
	<path display="inline" d="M1579.5,1151.3l-10.5-27.5h-0.2c0.2,2.2,0.3,4.8,0.3,7.8v19.7h-3.3v-31h5.4l9.8,25.6h0.2l9.9-25.6h5.4v31
		h-3.6v-20c0-2.3,0.1-4.8,0.3-7.5h-0.2l-10.6,27.4H1579.5z"/>
	<path display="inline" d="M1622.7,1151.3h-17.3v-31h17.3v3.2h-13.7v10h12.8v3.2h-12.8v11.4h13.7V1151.3z"/>
	<path display="inline" d="M1647.3,1151.3H1630v-31h17.3v3.2h-13.7v10h12.8v3.2h-12.8v11.4h13.7V1151.3z"/>
	<path display="inline" d="M1664.2,1151.3h-3.6v-27.8h-9.8v-3.2h23.2v3.2h-9.8V1151.3z"/>
	<path display="inline" d="M1696.6,1143.1c0,2.7-1,4.9-3,6.4c-2,1.5-4.7,2.3-8.1,2.3c-3.7,0-6.5-0.5-8.5-1.4v-3.5
		c1.3,0.5,2.7,1,4.2,1.3c1.5,0.3,3,0.5,4.5,0.5c2.4,0,4.2-0.5,5.4-1.4c1.2-0.9,1.8-2.2,1.8-3.8c0-1.1-0.2-2-0.6-2.6
		c-0.4-0.7-1.2-1.3-2.2-1.9c-1-0.6-2.5-1.2-4.6-2c-2.9-1-4.9-2.3-6.2-3.7c-1.2-1.4-1.9-3.3-1.9-5.5c0-2.4,0.9-4.3,2.7-5.7
		c1.8-1.4,4.2-2.1,7.1-2.1c3.1,0,5.9,0.6,8.5,1.7l-1.1,3.1c-2.6-1.1-5-1.6-7.5-1.6c-1.9,0-3.4,0.4-4.5,1.2c-1.1,0.8-1.6,2-1.6,3.4
		c0,1.1,0.2,2,0.6,2.6c0.4,0.7,1.1,1.3,2,1.9c0.9,0.6,2.4,1.2,4.3,1.9c3.3,1.2,5.5,2.4,6.7,3.7
		C1695.9,1139.2,1696.6,1141,1696.6,1143.1z"/>
	<path display="inline" d="M1738.6,1151.3h-3.6v-14.6h-16.3v14.6h-3.6v-31h3.6v13.2h16.3v-13.2h3.6V1151.3z"/>
	<path display="inline" d="M1747.5,1151.3v-31h3.6v31H1747.5z"/>
	<path display="inline" d="M1773.7,1135.1h10.5v15.1c-1.6,0.5-3.3,0.9-5,1.2s-3.7,0.4-5.9,0.4c-4.7,0-8.3-1.4-11-4.2
		c-2.6-2.8-3.9-6.7-3.9-11.7c0-3.2,0.6-6,1.9-8.5c1.3-2.4,3.2-4.3,5.6-5.6c2.4-1.3,5.3-1.9,8.5-1.9c3.3,0,6.4,0.6,9.2,1.8l-1.4,3.2
		c-2.8-1.2-5.5-1.8-8.1-1.8c-3.8,0-6.7,1.1-8.8,3.4s-3.2,5.4-3.2,9.3c0,4.2,1,7.4,3.1,9.5c2,2.2,5,3.2,9,3.2c2.1,0,4.2-0.2,6.3-0.7
		v-9.5h-6.9V1135.1z"/>
	<path display="inline" d="M1815.6,1151.3h-3.6v-14.6h-16.3v14.6h-3.6v-31h3.6v13.2h16.3v-13.2h3.6V1151.3z"/>
	<path display="inline" d="M1841.8,1151.3h-17.3v-31h17.3v3.2h-13.7v10h12.8v3.2h-12.8v11.4h13.7V1151.3z"/>
	<path display="inline" d="M1852.7,1138.4v12.9h-3.6v-31h8.5c3.8,0,6.6,0.7,8.4,2.2c1.8,1.5,2.7,3.6,2.7,6.6c0,4.1-2.1,6.9-6.2,8.3
		l8.4,13.9h-4.3l-7.5-12.9H1852.7z M1852.7,1135.4h4.9c2.5,0,4.4-0.5,5.6-1.5s1.8-2.5,1.8-4.5c0-2-0.6-3.5-1.8-4.4s-3.1-1.4-5.8-1.4
		h-4.7V1135.4z"/>
	<path display="inline" d="M1905.4,1151.3h-17.3v-31h17.3v3.2h-13.7v10h12.8v3.2h-12.8v11.4h13.7V1151.3z"/>
	<path display="inline" d="M1937.4,1135.5c0,5.1-1.4,9-4.2,11.7c-2.8,2.7-6.8,4.1-12,4.1h-8.6v-31h9.5c4.8,0,8.6,1.3,11.2,4
		C1936.1,1127,1937.4,1130.8,1937.4,1135.5z M1933.6,1135.7c0-4-1-7.1-3-9.1c-2-2-5-3.1-9-3.1h-5.2v24.8h4.4c4.3,0,7.5-1.1,9.7-3.2
		C1932.5,1142.9,1933.6,1139.8,1933.6,1135.7z"/>
	<path display="inline" d="M1968.2,1120.3v20.1c0,3.5-1.1,6.3-3.2,8.3s-5.1,3-8.8,3c-3.7,0-6.6-1-8.7-3.1c-2-2-3.1-4.8-3.1-8.4v-20
		h3.6v20.2c0,2.6,0.7,4.6,2.1,6c1.4,1.4,3.5,2.1,6.2,2.1c2.6,0,4.6-0.7,6-2.1s2.1-3.4,2.1-6v-20.2H1968.2z"/>
	<path display="inline" d="M1990.1,1123.1c-3.4,0-6.1,1.1-8.1,3.4c-2,2.3-3,5.4-3,9.3c0,4.1,1,7.2,2.9,9.4s4.6,3.3,8.1,3.3
		c2.2,0,4.6-0.4,7.4-1.2v3.2c-2.1,0.8-4.8,1.2-7.9,1.2c-4.6,0-8.1-1.4-10.6-4.2c-2.5-2.8-3.7-6.7-3.7-11.8c0-3.2,0.6-6,1.8-8.4
		c1.2-2.4,2.9-4.3,5.2-5.6s4.9-2,8-2c3.3,0,6.1,0.6,8.5,1.8l-1.5,3.1C1994.8,1123.7,1992.4,1123.1,1990.1,1123.1z"/>
	<path display="inline" d="M2024.1,1151.3l-3.9-9.9h-12.4l-3.8,9.9h-3.6l12.3-31.1h3l12.2,31.1H2024.1z M2019.1,1138.2l-3.6-9.6
		c-0.5-1.2-0.9-2.7-1.4-4.5c-0.3,1.4-0.8,2.8-1.3,4.5l-3.6,9.6H2019.1z"/>
	<path display="inline" d="M2042.1,1151.3h-3.6v-27.8h-9.8v-3.2h23.2v3.2h-9.8V1151.3z"/>
	<path display="inline" d="M2057,1151.3v-31h3.6v31H2057z"/>
	<path display="inline" d="M2096.4,1135.8c0,5-1.3,8.9-3.8,11.7c-2.5,2.8-6,4.3-10.5,4.3c-4.6,0-8.1-1.4-10.6-4.2
		c-2.5-2.8-3.7-6.7-3.7-11.8c0-5,1.2-9,3.7-11.7s6-4.2,10.6-4.2c4.5,0,7.9,1.4,10.4,4.2S2096.4,1130.8,2096.4,1135.8z
		 M2071.7,1135.8c0,4.2,0.9,7.4,2.7,9.6c1.8,2.2,4.4,3.3,7.8,3.3c3.4,0,6-1.1,7.8-3.2c1.8-2.2,2.6-5.3,2.6-9.6
		c0-4.2-0.9-7.3-2.6-9.5s-4.3-3.2-7.7-3.2c-3.4,0-6,1.1-7.8,3.3C2072.6,1128.5,2071.7,1131.7,2071.7,1135.8z"/>
	<path display="inline" d="M2128,1151.3h-4.1l-16.9-26h-0.2c0.2,3.1,0.3,5.9,0.3,8.4v17.6h-3.3v-31h4.1l16.9,25.9h0.2
		c0-0.4-0.1-1.6-0.2-3.7c-0.1-2.1-0.1-3.6-0.1-4.4v-17.8h3.4V1151.3z"/>
</g>
<g display="none">
	<path display="inline" fill="#1159BD" d="M1218.1,1099c-26.6,0-48.2-7.5-65-22.5c-16.7-15-25.1-35-25.1-60.1c0-24,8-43.8,24-59.5
		c16-15.6,38.2-23.5,66.6-23.5c26.3,0,47.7,7.4,64.3,22.1c16.6,14.7,24.8,34.4,24.8,59c0,25.5-8.3,45.9-25,61.3
		C1266,1091.3,1244.5,1099,1218.1,1099z M1217.8,1062.6c9.8,0,16.8-3.6,21.1-10.9c4.3-7.3,6.4-20.5,6.4-39.8
		c0-27.9-8.8-41.9-26.4-41.9c-19,0-28.5,15.9-28.5,47.8C1190.4,1047.6,1199.5,1062.6,1217.8,1062.6z"/>
	<path display="inline" fill="#1159BD" d="M1498,1096.6h-47.2l-51.7-70.9c-6.6-9.1-13.3-20.1-20.1-33.2c3,10.4,4.6,19.1,4.6,26.3
		v77.7h-47V936h54.8l44,58.8c8.8,11.7,15.4,22,19.9,30.8c-3-13.7-4.4-27.8-4.4-42.1V936h47.2V1096.6z"/>
	<path display="inline" fill="#1159BD" d="M1667.6,1057.2v39.4h-132.4V936h58v121.2H1667.6z"/>
	<path display="inline" fill="#1159BD" d="M1750,936v160.6h-58V936H1750z"/>
	<path display="inline" fill="#1159BD" d="M1948.7,1096.6h-47.2l-51.7-70.9c-6.6-9.1-13.3-20.1-20.1-33.2c3,10.4,4.6,19.1,4.6,26.3
		v77.7h-47V936h54.8l44,58.8c8.8,11.7,15.4,22,19.9,30.8c-3-13.7-4.4-27.8-4.4-42.1V936h47.2V1096.6z"/>
	<path display="inline" fill="#1159BD" d="M2128,1058.2v38.3h-142.1V936H2128v37.1h-85.2v23.3h68.9v35.6h-68.9v26.2H2128z"/>
</g>
<g opacity="0.7">
	<path fill="#FFFFFF" d="M29.2,329.6h-3.4l-5.9-19.7c-0.3-0.9-0.6-2-0.9-3.3c-0.3-1.3-0.5-2.1-0.5-2.4c-0.3,1.8-0.8,3.7-1.4,5.8
		l-5.8,19.6H7.8L0,300.2h3.6l4.7,18.2c0.6,2.6,1.1,4.9,1.4,6.9c0.4-2.5,0.9-4.9,1.6-7.2l5.3-17.9h3.6l5.5,18.1
		c0.6,2.1,1.2,4.4,1.6,7c0.3-1.9,0.7-4.2,1.5-7l4.6-18.1h3.6L29.2,329.6z"/>
	<path fill="#FFFFFF" d="M64.5,329.6H61v-13.9H45.5v13.9h-3.4v-29.4h3.4v12.5H61v-12.5h3.4V329.6z"/>
	<path fill="#FFFFFF" d="M89.4,329.6H72.9v-29.4h16.4v3h-13v9.5h12.2v3H76.4v10.8h13V329.6z"/>
	<path fill="#FFFFFF" d="M99.7,317.4v12.2h-3.4v-29.4h8.1c3.6,0,6.3,0.7,8,2.1c1.7,1.4,2.6,3.5,2.6,6.2c0,3.9-2,6.5-5.9,7.9l8,13.2
		h-4l-7.1-12.2H99.7z M99.7,314.4h4.7c2.4,0,4.2-0.5,5.3-1.4c1.1-1,1.7-2.4,1.7-4.3c0-1.9-0.6-3.4-1.7-4.2c-1.1-0.9-3-1.3-5.5-1.3
		h-4.5V314.4z"/>
	<path fill="#FFFFFF" d="M138.6,329.6h-16.4v-29.4h16.4v3h-13v9.5h12.2v3h-12.2v10.8h13V329.6z"/>
	<path fill="#FFFFFF" d="M182.4,329.6H179l-5.9-19.7c-0.3-0.9-0.6-2-0.9-3.3c-0.3-1.3-0.5-2.1-0.5-2.4c-0.3,1.8-0.8,3.7-1.4,5.8
		l-5.8,19.6H161l-7.8-29.4h3.6l4.7,18.2c0.6,2.6,1.1,4.9,1.4,6.9c0.4-2.5,0.9-4.9,1.6-7.2l5.3-17.9h3.6l5.5,18.1
		c0.6,2.1,1.2,4.4,1.6,7c0.3-1.9,0.7-4.2,1.5-7l4.6-18.1h3.6L182.4,329.6z"/>
	<path fill="#FFFFFF" d="M220.8,314.8c0,4.7-1.2,8.4-3.6,11.1c-2.4,2.7-5.7,4-9.9,4c-4.3,0-7.7-1.3-10-4c-2.4-2.7-3.5-6.4-3.5-11.2
		c0-4.8,1.2-8.5,3.5-11.1c2.4-2.6,5.7-4,10.1-4c4.2,0,7.5,1.3,9.9,4S220.8,310.1,220.8,314.8z M197.4,314.8c0,4,0.8,7,2.5,9.1
		c1.7,2.1,4.2,3.1,7.4,3.1c3.3,0,5.7-1,7.4-3.1c1.7-2.1,2.5-5.1,2.5-9.1c0-4-0.8-7-2.5-9c-1.7-2-4.1-3.1-7.4-3.1
		c-3.3,0-5.7,1-7.4,3.1C198.2,307.9,197.4,310.9,197.4,314.8z"/>
	<path fill="#FFFFFF" d="M231.2,317.4v12.2h-3.4v-29.4h8.1c3.6,0,6.3,0.7,8,2.1c1.7,1.4,2.6,3.5,2.6,6.2c0,3.9-2,6.5-5.9,7.9l8,13.2
		h-4l-7.1-12.2H231.2z M231.2,314.4h4.7c2.4,0,4.2-0.5,5.3-1.4c1.1-1,1.7-2.4,1.7-4.3c0-1.9-0.6-3.4-1.7-4.2c-1.1-0.9-3-1.3-5.5-1.3
		h-4.5V314.4z"/>
	<path fill="#FFFFFF" d="M277.2,314.6c0,4.9-1.3,8.6-4,11.1c-2.6,2.6-6.4,3.9-11.4,3.9h-8.2v-29.4h9c4.6,0,8.1,1.3,10.7,3.8
		S277.2,310,277.2,314.6z M273.6,314.7c0-3.8-1-6.7-2.9-8.7c-1.9-1.9-4.8-2.9-8.6-2.9h-5v23.5h4.2c4.1,0,7.1-1,9.2-3
		S273.6,318.6,273.6,314.7z"/>
	<path fill="#FFFFFF" d="M302.9,308.7c0,3-1,5.3-3.1,6.9s-4.9,2.4-8.7,2.4h-3.5v11.6h-3.4v-29.4h7.6
		C299.2,300.2,302.9,303,302.9,308.7z M287.6,315.1h3.1c3,0,5.2-0.5,6.6-1.5c1.4-1,2-2.6,2-4.7c0-1.9-0.6-3.4-1.9-4.4
		c-1.3-1-3.3-1.4-6-1.4h-3.8V315.1z"/>
	<path fill="#FFFFFF" d="M312.9,317.4v12.2h-3.4v-29.4h8.1c3.6,0,6.3,0.7,8,2.1c1.7,1.4,2.6,3.5,2.6,6.2c0,3.9-2,6.5-5.9,7.9l8,13.2
		h-4l-7.1-12.2H312.9z M312.9,314.4h4.7c2.4,0,4.2-0.5,5.3-1.4c1.1-1,1.7-2.4,1.7-4.3c0-1.9-0.6-3.4-1.7-4.2c-1.1-0.9-3-1.3-5.5-1.3
		h-4.5V314.4z"/>
	<path fill="#FFFFFF" d="M351.8,329.6h-16.4v-29.4h16.4v3h-13v9.5H351v3h-12.2v10.8h13V329.6z"/>
	<path fill="#FFFFFF" d="M375.3,321.8c0,2.6-0.9,4.6-2.8,6.1c-1.9,1.5-4.4,2.2-7.7,2.2c-3.5,0-6.2-0.5-8.1-1.3v-3.3
		c1.2,0.5,2.5,0.9,3.9,1.2c1.4,0.3,2.8,0.4,4.2,0.4c2.3,0,4-0.4,5.2-1.3c1.2-0.9,1.7-2.1,1.7-3.6c0-1-0.2-1.9-0.6-2.5
		c-0.4-0.7-1.1-1.3-2.1-1.8c-1-0.6-2.4-1.2-4.4-1.9c-2.7-1-4.7-2.1-5.9-3.5c-1.2-1.3-1.8-3.1-1.8-5.3c0-2.3,0.9-4.1,2.6-5.4
		c1.7-1.3,4-2,6.8-2c2.9,0,5.6,0.5,8.1,1.6l-1.1,3c-2.4-1-4.8-1.5-7.1-1.5c-1.8,0-3.2,0.4-4.2,1.2c-1,0.8-1.5,1.9-1.5,3.2
		c0,1,0.2,1.9,0.6,2.5c0.4,0.7,1,1.2,1.9,1.8c0.9,0.5,2.3,1.1,4.1,1.8c3.1,1.1,5.2,2.3,6.4,3.5C374.7,318.1,375.3,319.7,375.3,321.8
		z"/>
	<path fill="#FFFFFF" d="M398.4,321.8c0,2.6-0.9,4.6-2.8,6.1c-1.9,1.5-4.4,2.2-7.7,2.2c-3.5,0-6.2-0.5-8.1-1.3v-3.3
		c1.2,0.5,2.5,0.9,3.9,1.2c1.4,0.3,2.8,0.4,4.2,0.4c2.3,0,4-0.4,5.2-1.3c1.2-0.9,1.7-2.1,1.7-3.6c0-1-0.2-1.9-0.6-2.5
		c-0.4-0.7-1.1-1.3-2.1-1.8c-1-0.6-2.4-1.2-4.4-1.9c-2.7-1-4.7-2.1-5.9-3.5c-1.2-1.3-1.8-3.1-1.8-5.3c0-2.3,0.9-4.1,2.6-5.4
		c1.7-1.3,4-2,6.8-2c2.9,0,5.6,0.5,8.1,1.6l-1.1,3c-2.4-1-4.8-1.5-7.1-1.5c-1.8,0-3.2,0.4-4.2,1.2c-1,0.8-1.5,1.9-1.5,3.2
		c0,1,0.2,1.9,0.6,2.5c0.4,0.7,1,1.2,1.9,1.8c0.9,0.5,2.3,1.1,4.1,1.8c3.1,1.1,5.2,2.3,6.4,3.5C397.8,318.1,398.4,319.7,398.4,321.8
		z"/>
	<path fill="#FFFFFF" d="M429,329.6l-10-26.1h-0.2c0.2,2.1,0.3,4.5,0.3,7.4v18.7h-3.2v-29.4h5.2l9.3,24.3h0.2l9.4-24.3h5.1v29.4
		h-3.4v-19c0-2.2,0.1-4.5,0.3-7.1h-0.2l-10.1,26.1H429z"/>
	<path fill="#FFFFFF" d="M470,329.6h-16.4v-29.4H470v3h-13v9.5h12.2v3H457v10.8h13V329.6z"/>
	<path fill="#FFFFFF" d="M493.3,329.6h-16.4v-29.4h16.4v3h-13v9.5h12.2v3h-12.2v10.8h13V329.6z"/>
	<path fill="#FFFFFF" d="M509.3,329.6h-3.4v-26.4h-9.3v-3h22.1v3h-9.3V329.6z"/>
	<path fill="#FFFFFF" d="M540.1,321.8c0,2.6-0.9,4.6-2.8,6.1c-1.9,1.5-4.4,2.2-7.7,2.2c-3.5,0-6.2-0.5-8.1-1.3v-3.3
		c1.2,0.5,2.5,0.9,3.9,1.2c1.4,0.3,2.8,0.4,4.2,0.4c2.3,0,4-0.4,5.2-1.3c1.2-0.9,1.7-2.1,1.7-3.6c0-1-0.2-1.9-0.6-2.5
		c-0.4-0.7-1.1-1.3-2.1-1.8c-1-0.6-2.4-1.2-4.4-1.9c-2.7-1-4.7-2.1-5.9-3.5c-1.2-1.3-1.8-3.1-1.8-5.3c0-2.3,0.9-4.1,2.6-5.4
		c1.7-1.3,4-2,6.8-2c2.9,0,5.6,0.5,8.1,1.6l-1.1,3c-2.4-1-4.8-1.5-7.1-1.5c-1.8,0-3.2,0.4-4.2,1.2c-1,0.8-1.5,1.9-1.5,3.2
		c0,1,0.2,1.9,0.6,2.5c0.4,0.7,1,1.2,1.9,1.8c0.9,0.5,2.3,1.1,4.1,1.8c3.1,1.1,5.2,2.3,6.4,3.5C539.5,318.1,540.1,319.7,540.1,321.8
		z"/>
	<path fill="#FFFFFF" d="M580,329.6h-3.4v-13.9h-15.5v13.9h-3.4v-29.4h3.4v12.5h15.5v-12.5h3.4V329.6z"/>
	<path fill="#FFFFFF" d="M588.5,329.6v-29.4h3.4v29.4H588.5z"/>
	<path fill="#FFFFFF" d="M613.4,314.2h10v14.3c-1.6,0.5-3.1,0.9-4.8,1.1s-3.5,0.4-5.6,0.4c-4.5,0-7.9-1.3-10.4-4
		c-2.5-2.7-3.7-6.4-3.7-11.1c0-3.1,0.6-5.7,1.8-8c1.2-2.3,3-4.1,5.3-5.3c2.3-1.2,5-1.8,8.1-1.8c3.1,0,6.1,0.6,8.8,1.7l-1.3,3
		c-2.7-1.1-5.2-1.7-7.7-1.7c-3.6,0-6.4,1.1-8.4,3.2s-3,5.1-3,8.9c0,4,1,7,2.9,9s4.8,3.1,8.5,3.1c2,0,4-0.2,6-0.7v-9.1h-6.6V314.2z"
		/>
	<path fill="#FFFFFF" d="M653.2,329.6h-3.4v-13.9h-15.5v13.9h-3.4v-29.4h3.4v12.5h15.5v-12.5h3.4V329.6z"/>
	<path fill="#FFFFFF" d="M678.1,329.6h-16.4v-29.4h16.4v3h-13v9.5h12.2v3h-12.2v10.8h13V329.6z"/>
	<path fill="#FFFFFF" d="M688.5,317.4v12.2h-3.4v-29.4h8.1c3.6,0,6.3,0.7,8,2.1c1.7,1.4,2.6,3.5,2.6,6.2c0,3.9-2,6.5-5.9,7.9l8,13.2
		h-4l-7.1-12.2H688.5z M688.5,314.4h4.7c2.4,0,4.2-0.5,5.3-1.4c1.1-1,1.7-2.4,1.7-4.3c0-1.9-0.6-3.4-1.7-4.2c-1.1-0.9-3-1.3-5.5-1.3
		h-4.5V314.4z"/>
	<path fill="#FFFFFF" d="M738.5,329.6h-16.4v-29.4h16.4v3h-13v9.5h12.2v3h-12.2v10.8h13V329.6z"/>
	<path fill="#FFFFFF" d="M769,314.6c0,4.9-1.3,8.6-4,11.1c-2.6,2.6-6.4,3.9-11.4,3.9h-8.2v-29.4h9c4.6,0,8.1,1.3,10.7,3.8
		S769,310,769,314.6z M765.3,314.7c0-3.8-1-6.7-2.9-8.7c-1.9-1.9-4.8-2.9-8.6-2.9h-5v23.5h4.2c4.1,0,7.1-1,9.2-3
		S765.3,318.6,765.3,314.7z"/>
	<path fill="#FFFFFF" d="M798.2,300.2v19.1c0,3.4-1,6-3,7.9c-2,1.9-4.8,2.9-8.4,2.9s-6.3-1-8.2-2.9c-1.9-1.9-2.9-4.6-2.9-8v-19h3.4
		v19.2c0,2.5,0.7,4.3,2,5.7c1.3,1.3,3.3,2,5.9,2c2.5,0,4.4-0.7,5.7-2c1.3-1.3,2-3.2,2-5.7v-19.2H798.2z"/>
	<path fill="#FFFFFF" d="M819,302.8c-3.2,0-5.8,1.1-7.7,3.2c-1.9,2.2-2.8,5.1-2.8,8.9c0,3.9,0.9,6.8,2.7,8.9
		c1.8,2.1,4.4,3.2,7.7,3.2c2.1,0,4.4-0.4,7-1.1v3c-2,0.8-4.6,1.1-7.6,1.1c-4.3,0-7.7-1.3-10-3.9c-2.4-2.6-3.5-6.4-3.5-11.2
		c0-3,0.6-5.7,1.7-8c1.1-2.3,2.8-4,4.9-5.3c2.1-1.2,4.7-1.9,7.6-1.9c3.1,0,5.8,0.6,8.1,1.7l-1.5,2.9
		C823.4,303.3,821.2,302.8,819,302.8z"/>
	<path fill="#FFFFFF" d="M851.3,329.6l-3.7-9.4h-11.8l-3.6,9.4h-3.5l11.6-29.6h2.9l11.6,29.6H851.3z M846.6,317.2l-3.4-9.1
		c-0.4-1.2-0.9-2.6-1.4-4.2c-0.3,1.3-0.7,2.7-1.3,4.2l-3.5,9.1H846.6z"/>
	<path fill="#FFFFFF" d="M868.4,329.6H865v-26.4h-9.3v-3h22.1v3h-9.3V329.6z"/>
	<path fill="#FFFFFF" d="M882.6,329.6v-29.4h3.4v29.4H882.6z"/>
	<path fill="#FFFFFF" d="M920,314.8c0,4.7-1.2,8.4-3.6,11.1c-2.4,2.7-5.7,4-9.9,4c-4.3,0-7.7-1.3-10-4c-2.4-2.7-3.5-6.4-3.5-11.2
		c0-4.8,1.2-8.5,3.5-11.1c2.4-2.6,5.7-4,10.1-4c4.2,0,7.5,1.3,9.9,4C918.8,306.4,920,310.1,920,314.8z M896.6,314.8
		c0,4,0.8,7,2.5,9.1c1.7,2.1,4.2,3.1,7.4,3.1c3.3,0,5.7-1,7.4-3.1c1.7-2.1,2.5-5.1,2.5-9.1c0-4-0.8-7-2.5-9c-1.7-2-4.1-3.1-7.4-3.1
		c-3.3,0-5.7,1-7.4,3.1C897.4,307.9,896.6,310.9,896.6,314.8z"/>
	<path fill="#FFFFFF" d="M950,329.6h-3.9L930,304.9h-0.2c0.2,2.9,0.3,5.6,0.3,8v16.7H927v-29.4h3.9l16.1,24.6h0.2
		c0-0.4-0.1-1.5-0.2-3.5c-0.1-2-0.1-3.4-0.1-4.2v-16.9h3.2V329.6z"/>
</g>
</svg>
