<?xml version="1.0" encoding="utf-8"?>
<!-- Generator: Adobe Illustrator 19.2.1, SVG Export Plug-In . SVG Version: 6.00 Build 0)  -->
<svg version="1.1" id="Layer_1" xmlns="http://www.w3.org/2000/svg" xmlns:xlink="http://www.w3.org/1999/xlink" x="0px" y="0px"
	 viewBox="0 0 1000 292" style="enable-background:new 0 0 1000 292;" xml:space="preserve">
<style type="text/css">
	.st0{opacity:0.7;}
	.st1{display:none;}
	.st2{display:inline;fill:#1159BD;}
	.st3{fill:#1159BD;}
	.st4{display:none;opacity:0.7;}
	.st5{display:inline;}
</style>
<path class="st0" d="M122,1.6L96.9,105.9H83.8L61,25l-21.1,80.9H26.5L0,1.6h13.6l20.9,84.5L56.6,1.6h10.6l23.9,84.5l19.5-84.5H122z"
	/>
<path class="st0" d="M170.6,105.9h-13.1V1.6h37c11.6,0,20.1,3.1,25.6,9.4c5.5,6.3,8.3,13.5,8.3,21.5c0,9-3,16.4-9,22.2
	c-6,5.9-13.8,8.8-23.5,8.8h-25.3V105.9z M170.6,52.7h24c6.2,0,11.1-1.8,14.9-5.5c3.8-3.7,5.7-8.6,5.7-14.6c0-5.2-1.7-9.8-5-13.9
	c-3.4-4.1-8.2-6.1-14.6-6.1h-24.9V52.7z"/>
<path d="M320.5,66.1l29.3,1.8c-1.4,12.8-6.1,22.6-14.2,29.4c-8.1,6.8-18,10.2-29.8,10.2c-14.2,0-25.6-4.7-34.3-14.1
	c-8.7-9.4-13.1-22.3-13.1-38.8c0-16.4,4.1-29.5,12.4-39.6C279.1,5,290.6,0,305.4,0c13.8,0,24.4,3.8,31.8,11.5
	c7.4,7.6,11.6,17.8,12.6,30.4l-29.9,1.6c0-7-1.3-12-4-15.1c-2.7-3.1-5.8-4.7-9.4-4.7c-10.1,0-15.1,10.1-15.1,30.4
	c0,11.4,1.3,19.1,3.9,23.2c2.6,4.1,6.3,6.1,11,6.1C314.7,83.4,319.5,77.6,320.5,66.1z"/>
<path d="M443.3,105.9l-5.9-20.6h-27.9l-6.3,20.6h-26L409.4,1.6h33.9L476,105.9H443.3z M414.9,62.6h16.9l-8.4-30.3L414.9,62.6z"/>
<path d="M621.1,1.6v104.3h-29.7V31.3L572,105.9h-20.3l-20.1-74.6v74.6h-24V1.6h41.8L564.6,57l14.4-55.4H621.1z"/>
<path d="M694.4,68v37.9h-32.5V1.6h44.6c11.1,0,19.6,1.3,25.3,3.8c5.8,2.5,10.4,6.4,13.8,11.7c3.4,5.2,5.1,11.1,5.1,17.7
	c0,9.9-3.5,18-10.4,24.1c-6.9,6.1-16.2,9.2-27.7,9.2H694.4z M693.9,45.6h10.7c9.4,0,14.1-3.5,14.1-10.4c0-6.5-4.4-9.8-13.1-9.8
	h-11.8V45.6z"/>
<path d="M871.8,1.6v69.1c0,13.1-3.9,22.5-11.7,28.2c-7.8,5.7-17.9,8.6-30.4,8.6c-13.1,0-23.7-2.8-31.7-8.3c-8-5.5-12-14.5-12-26.9
	V1.6h32.6v67c0,5,1.1,8.6,3.2,10.9c2.1,2.3,5.5,3.4,10.1,3.4c3.9,0,7-0.8,9.5-2.5c2.5-1.7,3.9-3.5,4.4-5.6c0.5-2.1,0.7-6.2,0.7-12.2
	V1.6H871.8z"/>
<path d="M906.4,75.7l29.7-5.3c2.5,8.4,8.9,12.6,19.3,12.6c8,0,12.1-2.1,12.1-6.4c0-2.2-0.9-4-2.8-5.2c-1.9-1.2-5.2-2.4-10-3.3
	c-18.3-3.5-30-8.1-35.2-13.7c-5.2-5.7-7.8-12.3-7.8-20c0-9.8,3.7-18,11.2-24.5c7.5-6.5,18.2-9.8,32.2-9.8c21.2,0,35.3,8.5,42.1,25.6
	l-26.5,8c-2.8-7-8.3-10.5-16.7-10.5c-7,0-10.5,2.2-10.5,6.5c0,1.9,0.8,3.4,2.4,4.5c1.6,1.1,4.6,2.1,9.2,3.1c12.5,2.6,21.4,5,26.6,7
	c5.2,2,9.6,5.5,13.1,10.4c3.5,4.9,5.3,10.7,5.3,17.4c0,10.6-4.3,19.1-12.8,25.7c-8.6,6.6-19.8,9.8-33.7,9.8
	C928,107.5,912.3,96.9,906.4,75.7z"/>
<rect x="1363" y="245.4" style="fill:none;" width="883" height="209.5"/>
<text transform="matrix(1 0 0 0.8 1457.2725 388.2595)" style="display:none;fill:#1159BD; font-family:'FranklinGothic-Medium'; font-size:214px;">ONLINE</text>
<rect x="1363" y="-0.4" style="fill:none;" width="883" height="209.5"/>
<text transform="matrix(1 0 0 0.85 1421.4521 142.3521)" style="display:none;fill:#1159BD; font-family:'FranklinGothic-Heavy'; font-size:214px; letter-spacing:3;">ONLINE</text>
<g>
	<path class="st3" d="M90.1,292c-26.6,0-48.2-7.5-65-22.5C8.4,254.6,0,234.5,0,209.4c0-24,8-43.8,24-59.5
		c16-15.6,38.2-23.5,66.6-23.5c26.3,0,47.7,7.4,64.3,22.1c16.6,14.7,24.8,34.4,24.8,59c0,25.5-8.3,45.9-25,61.3
		C138,284.3,116.5,292,90.1,292z M89.8,255.5c9.8,0,16.8-3.6,21.1-10.9c4.3-7.3,6.4-20.5,6.4-39.8c0-27.9-8.8-41.9-26.4-41.9
		c-19,0-28.5,15.9-28.5,47.8C62.4,240.6,71.5,255.5,89.8,255.5z"/>
	<path class="st3" d="M370,289.5h-47.2l-51.7-70.9c-6.6-9.1-13.3-20.1-20.1-33.2c3,10.4,4.6,19.1,4.6,26.3v77.7h-47V129h54.8
		l44,58.8c8.8,11.7,15.4,22,19.9,30.8c-3-13.7-4.4-27.8-4.4-42.1V129H370V289.5z"/>
	<path class="st3" d="M539.6,250.1v39.4H407.2V129h58v121.2H539.6z"/>
	<path class="st3" d="M622,129v160.6h-58V129H622z"/>
	<path class="st3" d="M820.7,289.5h-47.2l-51.7-70.9c-6.6-9.1-13.3-20.1-20.1-33.2c3,10.4,4.6,19.1,4.6,26.3v77.7h-47V129H714
		l44,58.8c8.8,11.7,15.4,22,19.9,30.8c-3-13.7-4.4-27.8-4.4-42.1V129h47.2V289.5z"/>
	<path class="st3" d="M1000,251.2v38.3H857.9V129H1000V166h-85.2v23.3h68.9V225h-68.9v26.2H1000z"/>
</g>
<path class="st4" d="M1110,595.3l-25.1,104.3h-13.1l-22.8-80.9l-21.1,80.9h-13.4L988,595.3h13.6l20.9,84.5l22.1-84.5h10.6l23.9,84.5
	l19.5-84.5H1110z"/>
<path class="st4" d="M1158.6,699.6h-13.1V595.3h37c11.6,0,20.1,3.1,25.6,9.4c5.5,6.3,8.3,13.5,8.3,21.5c0,9-3,16.4-9,22.2
	c-6,5.9-13.8,8.8-23.5,8.8h-25.3V699.6z M1158.6,646.4h24c6.2,0,11.1-1.8,14.9-5.5c3.8-3.7,5.7-8.6,5.7-14.6c0-5.2-1.7-9.8-5-13.9
	c-3.4-4.1-8.2-6.1-14.6-6.1h-24.9V646.4z"/>
<path class="st1" d="M1308.5,659.8l29.3,1.8c-1.4,12.8-6.1,22.6-14.2,29.4c-8.1,6.8-18,10.2-29.8,10.2c-14.2,0-25.6-4.7-34.3-14.1
	c-8.7-9.4-13.1-22.3-13.1-38.8c0-16.4,4.1-29.5,12.4-39.6c8.3-10,19.8-15.1,34.5-15.1c13.8,0,24.4,3.8,31.8,11.5
	c7.4,7.6,11.6,17.8,12.6,30.4l-29.9,1.6c0-7-1.3-12-4-15.1c-2.7-3.1-5.8-4.7-9.4-4.7c-10.1,0-15.1,10.1-15.1,30.4
	c0,11.4,1.3,19.1,3.9,23.2c2.6,4.1,6.3,6.1,11,6.1C1302.7,677.1,1307.5,671.3,1308.5,659.8z"/>
<path class="st1" d="M1431.3,699.6l-5.9-20.6h-27.9l-6.3,20.6h-26l32.2-104.3h33.9l32.7,104.3H1431.3z M1402.9,656.3h16.9l-8.4-30.3
	L1402.9,656.3z"/>
<path class="st1" d="M1609.1,595.3v104.3h-29.7V625l-19.3,74.6h-20.3l-20.1-74.6v74.6h-24V595.3h41.8l15.1,55.4l14.4-55.4H1609.1z"
	/>
<path class="st1" d="M1682.4,661.7v37.9h-32.5V595.3h44.6c11.1,0,19.6,1.3,25.3,3.8c5.8,2.5,10.4,6.4,13.8,11.7
	c3.4,5.2,5.1,11.1,5.1,17.7c0,9.9-3.5,18-10.4,24.1c-6.9,6.1-16.2,9.2-27.7,9.2H1682.4z M1681.9,639.3h10.7
	c9.4,0,14.1-3.5,14.1-10.4c0-6.5-4.4-9.8-13.1-9.8h-11.8V639.3z"/>
<path class="st1" d="M1859.8,595.3v69.1c0,13.1-3.9,22.5-11.7,28.2c-7.8,5.7-17.9,8.6-30.4,8.6c-13.1,0-23.7-2.8-31.7-8.3
	c-8-5.5-12-14.5-12-26.9v-70.8h32.6v67c0,5,1.1,8.6,3.2,10.9c2.1,2.3,5.5,3.4,10.1,3.4c3.9,0,7-0.8,9.5-2.5c2.5-1.7,3.9-3.5,4.4-5.6
	c0.5-2.1,0.7-6.2,0.7-12.2v-61.1H1859.8z"/>
<path class="st1" d="M1894.4,669.4l29.7-5.3c2.5,8.4,8.9,12.6,19.3,12.6c8,0,12.1-2.1,12.1-6.4c0-2.2-0.9-4-2.8-5.2
	c-1.9-1.2-5.2-2.4-10-3.3c-18.3-3.5-30-8.1-35.2-13.7c-5.2-5.7-7.8-12.3-7.8-20c0-9.8,3.7-18,11.2-24.5c7.5-6.5,18.2-9.8,32.2-9.8
	c21.2,0,35.3,8.5,42.1,25.6l-26.5,8c-2.8-7-8.3-10.5-16.7-10.5c-7,0-10.5,2.2-10.5,6.5c0,1.9,0.8,3.4,2.4,4.5
	c1.6,1.1,4.6,2.1,9.2,3.1c12.5,2.6,21.4,5,26.6,7c5.2,2,9.6,5.5,13.1,10.4c3.5,4.9,5.3,10.7,5.3,17.4c0,10.6-4.3,19.1-12.8,25.7
	c-8.6,6.6-19.8,9.8-33.7,9.8C1916,701.2,1900.3,690.6,1894.4,669.4z"/>
<g class="st4">
	<path class="st5" d="M1018.7,937.3h-3.6l-6.3-20.8c-0.3-0.9-0.6-2.1-1-3.5c-0.4-1.4-0.6-2.2-0.6-2.5c-0.3,1.9-0.8,3.9-1.5,6.1
		l-6.1,20.6h-3.6l-8.2-31h3.8l4.9,19.1c0.7,2.7,1.2,5.1,1.5,7.3c0.4-2.6,0.9-5.1,1.7-7.6l5.6-18.8h3.8l5.8,19
		c0.7,2.2,1.3,4.7,1.7,7.4c0.3-2,0.8-4.5,1.5-7.3l4.9-19.1h3.8L1018.7,937.3z"/>
	<path class="st5" d="M1055.8,937.3h-3.6v-14.6h-16.3v14.6h-3.6v-31h3.6v13.2h16.3v-13.2h3.6V937.3z"/>
	<path class="st5" d="M1082.1,937.3h-17.3v-31h17.3v3.2h-13.7v10h12.8v3.2h-12.8v11.4h13.7V937.3z"/>
	<path class="st5" d="M1093,924.4v12.9h-3.6v-31h8.5c3.8,0,6.6,0.7,8.4,2.2c1.8,1.5,2.7,3.6,2.7,6.6c0,4.1-2.1,6.9-6.2,8.3l8.4,13.9
		h-4.3l-7.5-12.9H1093z M1093,921.4h4.9c2.5,0,4.4-0.5,5.6-1.5s1.8-2.5,1.8-4.5c0-2-0.6-3.5-1.8-4.4c-1.2-0.9-3.1-1.4-5.8-1.4h-4.7
		V921.4z"/>
	<path class="st5" d="M1133.9,937.3h-17.3v-31h17.3v3.2h-13.7v10h12.8v3.2h-12.8v11.4h13.7V937.3z"/>
	<path class="st5" d="M1180,937.3h-3.6l-6.3-20.8c-0.3-0.9-0.6-2.1-1-3.5c-0.4-1.4-0.6-2.2-0.6-2.5c-0.3,1.9-0.8,3.9-1.5,6.1
		l-6.1,20.6h-3.6l-8.2-31h3.8l4.9,19.1c0.7,2.7,1.2,5.1,1.5,7.3c0.4-2.6,0.9-5.1,1.7-7.6l5.6-18.8h3.8l5.8,19
		c0.7,2.2,1.3,4.7,1.7,7.4c0.3-2,0.8-4.5,1.5-7.3l4.9-19.1h3.8L1180,937.3z"/>
	<path class="st5" d="M1220.5,921.8c0,5-1.3,8.9-3.8,11.7c-2.5,2.8-6,4.3-10.5,4.3c-4.6,0-8.1-1.4-10.6-4.2
		c-2.5-2.8-3.7-6.7-3.7-11.8c0-5,1.2-9,3.7-11.7c2.5-2.8,6-4.2,10.6-4.2c4.5,0,7.9,1.4,10.4,4.2S1220.5,916.8,1220.5,921.8z
		 M1195.8,921.8c0,4.2,0.9,7.4,2.7,9.6c1.8,2.2,4.4,3.3,7.8,3.3c3.4,0,6-1.1,7.8-3.2c1.8-2.2,2.6-5.3,2.6-9.6c0-4.2-0.9-7.3-2.6-9.5
		c-1.7-2.2-4.3-3.2-7.7-3.2c-3.4,0-6,1.1-7.8,3.3C1196.7,914.5,1195.8,917.7,1195.8,921.8z"/>
	<path class="st5" d="M1231.4,924.4v12.9h-3.6v-31h8.5c3.8,0,6.6,0.7,8.4,2.2c1.8,1.5,2.7,3.6,2.7,6.6c0,4.1-2.1,6.9-6.2,8.3
		l8.4,13.9h-4.3l-7.5-12.9H1231.4z M1231.4,921.4h4.9c2.5,0,4.4-0.5,5.6-1.5s1.8-2.5,1.8-4.5c0-2-0.6-3.5-1.8-4.4
		c-1.2-0.9-3.1-1.4-5.8-1.4h-4.7V921.4z"/>
	<path class="st5" d="M1279.8,921.5c0,5.1-1.4,9-4.2,11.7c-2.8,2.7-6.8,4.1-12,4.1h-8.6v-31h9.5c4.8,0,8.6,1.3,11.2,4
		C1278.5,913,1279.8,916.8,1279.8,921.5z M1276,921.7c0-4-1-7.1-3-9.1c-2-2-5-3.1-9-3.1h-5.2v24.8h4.4c4.3,0,7.5-1.1,9.7-3.2
		C1274.9,928.9,1276,925.8,1276,921.7z"/>
	<path class="st5" d="M1306.8,915.4c0,3.1-1.1,5.6-3.2,7.2c-2.1,1.7-5.2,2.5-9.2,2.5h-3.6v12.2h-3.6v-31h8
		C1302.9,906.3,1306.8,909.4,1306.8,915.4z M1290.8,922.1h3.2c3.2,0,5.5-0.5,6.9-1.5c1.4-1,2.1-2.7,2.1-5c0-2-0.7-3.6-2-4.6
		c-1.3-1-3.4-1.5-6.3-1.5h-4V922.1z"/>
	<path class="st5" d="M1317.3,924.4v12.9h-3.6v-31h8.5c3.8,0,6.6,0.7,8.4,2.2c1.8,1.5,2.7,3.6,2.7,6.6c0,4.1-2.1,6.9-6.2,8.3
		l8.4,13.9h-4.3l-7.5-12.9H1317.3z M1317.3,921.4h4.9c2.5,0,4.4-0.5,5.6-1.5s1.8-2.5,1.8-4.5c0-2-0.6-3.5-1.8-4.4
		c-1.2-0.9-3.1-1.4-5.8-1.4h-4.7V921.4z"/>
	<path class="st5" d="M1358.3,937.3H1341v-31h17.3v3.2h-13.7v10h12.8v3.2h-12.8v11.4h13.7V937.3z"/>
	<path class="st5" d="M1383.1,929.1c0,2.7-1,4.9-3,6.4c-2,1.5-4.7,2.3-8.1,2.3c-3.7,0-6.5-0.5-8.5-1.4v-3.5c1.3,0.5,2.7,1,4.2,1.3
		c1.5,0.3,3,0.5,4.5,0.5c2.4,0,4.2-0.5,5.4-1.4c1.2-0.9,1.8-2.2,1.8-3.8c0-1.1-0.2-2-0.6-2.6c-0.4-0.7-1.2-1.3-2.2-1.9
		c-1-0.6-2.5-1.2-4.6-2c-2.9-1-4.9-2.3-6.2-3.7c-1.2-1.4-1.9-3.3-1.9-5.5c0-2.4,0.9-4.3,2.7-5.7c1.8-1.4,4.2-2.1,7.1-2.1
		c3.1,0,5.9,0.6,8.5,1.7l-1.1,3.1c-2.6-1.1-5-1.6-7.5-1.6c-1.9,0-3.4,0.4-4.5,1.2c-1.1,0.8-1.6,2-1.6,3.4c0,1.1,0.2,2,0.6,2.6
		c0.4,0.7,1.1,1.3,2,1.9c0.9,0.6,2.4,1.2,4.3,1.9c3.3,1.2,5.5,2.4,6.7,3.7C1382.5,925.2,1383.1,927,1383.1,929.1z"/>
	<path class="st5" d="M1407.3,929.1c0,2.7-1,4.9-3,6.4c-2,1.5-4.7,2.3-8.1,2.3c-3.7,0-6.5-0.5-8.5-1.4v-3.5c1.3,0.5,2.7,1,4.2,1.3
		c1.5,0.3,3,0.5,4.5,0.5c2.4,0,4.2-0.5,5.4-1.4c1.2-0.9,1.8-2.2,1.8-3.8c0-1.1-0.2-2-0.6-2.6c-0.4-0.7-1.2-1.3-2.2-1.9
		c-1-0.6-2.5-1.2-4.6-2c-2.9-1-4.9-2.3-6.2-3.7c-1.2-1.4-1.9-3.3-1.9-5.5c0-2.4,0.9-4.3,2.7-5.7c1.8-1.4,4.2-2.1,7.1-2.1
		c3.1,0,5.9,0.6,8.5,1.7l-1.1,3.1c-2.6-1.1-5-1.6-7.5-1.6c-1.9,0-3.4,0.4-4.5,1.2c-1.1,0.8-1.6,2-1.6,3.4c0,1.1,0.2,2,0.6,2.6
		c0.4,0.7,1.1,1.3,2,1.9c0.9,0.6,2.4,1.2,4.3,1.9c3.3,1.2,5.5,2.4,6.7,3.7C1406.7,925.2,1407.3,927,1407.3,929.1z"/>
	<path class="st5" d="M1439.5,937.3l-10.5-27.5h-0.2c0.2,2.2,0.3,4.8,0.3,7.8v19.7h-3.3v-31h5.4l9.8,25.6h0.2l9.9-25.6h5.4v31h-3.6
		v-20c0-2.3,0.1-4.8,0.3-7.5h-0.2l-10.6,27.4H1439.5z"/>
	<path class="st5" d="M1482.7,937.3h-17.3v-31h17.3v3.2h-13.7v10h12.8v3.2h-12.8v11.4h13.7V937.3z"/>
	<path class="st5" d="M1507.3,937.3H1490v-31h17.3v3.2h-13.7v10h12.8v3.2h-12.8v11.4h13.7V937.3z"/>
	<path class="st5" d="M1524.2,937.3h-3.6v-27.8h-9.8v-3.2h23.2v3.2h-9.8V937.3z"/>
	<path class="st5" d="M1556.6,929.1c0,2.7-1,4.9-3,6.4c-2,1.5-4.7,2.3-8.1,2.3c-3.7,0-6.5-0.5-8.5-1.4v-3.5c1.3,0.5,2.7,1,4.2,1.3
		c1.5,0.3,3,0.5,4.5,0.5c2.4,0,4.2-0.5,5.4-1.4c1.2-0.9,1.8-2.2,1.8-3.8c0-1.1-0.2-2-0.6-2.6c-0.4-0.7-1.2-1.3-2.2-1.9
		c-1-0.6-2.5-1.2-4.6-2c-2.9-1-4.9-2.3-6.2-3.7c-1.2-1.4-1.9-3.3-1.9-5.5c0-2.4,0.9-4.3,2.7-5.7c1.8-1.4,4.2-2.1,7.1-2.1
		c3.1,0,5.9,0.6,8.5,1.7l-1.1,3.1c-2.6-1.1-5-1.6-7.5-1.6c-1.9,0-3.4,0.4-4.5,1.2c-1.1,0.8-1.6,2-1.6,3.4c0,1.1,0.2,2,0.6,2.6
		c0.4,0.7,1.1,1.3,2,1.9c0.9,0.6,2.4,1.2,4.3,1.9c3.3,1.2,5.5,2.4,6.7,3.7C1555.9,925.2,1556.6,927,1556.6,929.1z"/>
	<path class="st5" d="M1598.6,937.3h-3.6v-14.6h-16.3v14.6h-3.6v-31h3.6v13.2h16.3v-13.2h3.6V937.3z"/>
	<path class="st5" d="M1607.5,937.3v-31h3.6v31H1607.5z"/>
	<path class="st5" d="M1633.7,921.1h10.5v15.1c-1.6,0.5-3.3,0.9-5,1.2s-3.7,0.4-5.9,0.4c-4.7,0-8.3-1.4-11-4.2
		c-2.6-2.8-3.9-6.7-3.9-11.7c0-3.2,0.6-6,1.9-8.5c1.3-2.4,3.2-4.3,5.6-5.6c2.4-1.3,5.3-1.9,8.5-1.9c3.3,0,6.4,0.6,9.2,1.8l-1.4,3.2
		c-2.8-1.2-5.5-1.8-8.1-1.8c-3.8,0-6.7,1.1-8.8,3.4s-3.2,5.4-3.2,9.3c0,4.2,1,7.4,3.1,9.5c2,2.2,5,3.2,9,3.2c2.1,0,4.2-0.2,6.3-0.7
		v-9.5h-6.9V921.1z"/>
	<path class="st5" d="M1675.6,937.3h-3.6v-14.6h-16.3v14.6h-3.6v-31h3.6v13.2h16.3v-13.2h3.6V937.3z"/>
	<path class="st5" d="M1701.8,937.3h-17.3v-31h17.3v3.2h-13.7v10h12.8v3.2h-12.8v11.4h13.7V937.3z"/>
	<path class="st5" d="M1712.7,924.4v12.9h-3.6v-31h8.5c3.8,0,6.6,0.7,8.4,2.2c1.8,1.5,2.7,3.6,2.7,6.6c0,4.1-2.1,6.9-6.2,8.3
		l8.4,13.9h-4.3l-7.5-12.9H1712.7z M1712.7,921.4h4.9c2.5,0,4.4-0.5,5.6-1.5s1.8-2.5,1.8-4.5c0-2-0.6-3.5-1.8-4.4
		c-1.2-0.9-3.1-1.4-5.8-1.4h-4.7V921.4z"/>
	<path class="st5" d="M1765.4,937.3h-17.3v-31h17.3v3.2h-13.7v10h12.8v3.2h-12.8v11.4h13.7V937.3z"/>
	<path class="st5" d="M1797.4,921.5c0,5.1-1.4,9-4.2,11.7c-2.8,2.7-6.8,4.1-12,4.1h-8.6v-31h9.5c4.8,0,8.6,1.3,11.2,4
		S1797.4,916.8,1797.4,921.5z M1793.6,921.7c0-4-1-7.1-3-9.1s-5-3.1-9-3.1h-5.2v24.8h4.4c4.3,0,7.5-1.1,9.7-3.2
		C1792.5,928.9,1793.6,925.8,1793.6,921.7z"/>
	<path class="st5" d="M1828.2,906.3v20.1c0,3.5-1.1,6.3-3.2,8.3c-2.1,2-5.1,3-8.8,3c-3.7,0-6.6-1-8.7-3.1c-2-2-3.1-4.8-3.1-8.4v-20
		h3.6v20.2c0,2.6,0.7,4.6,2.1,6c1.4,1.4,3.5,2.1,6.2,2.1c2.6,0,4.6-0.7,6-2.1s2.1-3.4,2.1-6v-20.2H1828.2z"/>
	<path class="st5" d="M1850.1,909.1c-3.4,0-6.1,1.1-8.1,3.4c-2,2.3-3,5.4-3,9.3c0,4.1,1,7.2,2.9,9.4c1.9,2.2,4.6,3.3,8.1,3.3
		c2.2,0,4.6-0.4,7.4-1.2v3.2c-2.1,0.8-4.8,1.2-7.9,1.2c-4.6,0-8.1-1.4-10.6-4.2c-2.5-2.8-3.7-6.7-3.7-11.8c0-3.2,0.6-6,1.8-8.4
		c1.2-2.4,2.9-4.3,5.2-5.6c2.3-1.3,4.9-2,8-2c3.3,0,6.1,0.6,8.5,1.8l-1.5,3.1C1854.8,909.7,1852.4,909.1,1850.1,909.1z"/>
	<path class="st5" d="M1884.1,937.3l-3.9-9.9h-12.4l-3.8,9.9h-3.6l12.3-31.1h3l12.2,31.1H1884.1z M1879.1,924.2l-3.6-9.6
		c-0.5-1.2-0.9-2.7-1.4-4.5c-0.3,1.4-0.8,2.8-1.3,4.5l-3.6,9.6H1879.1z"/>
	<path class="st5" d="M1902.1,937.3h-3.6v-27.8h-9.8v-3.2h23.2v3.2h-9.8V937.3z"/>
	<path class="st5" d="M1917,937.3v-31h3.6v31H1917z"/>
	<path class="st5" d="M1956.4,921.8c0,5-1.3,8.9-3.8,11.7c-2.5,2.8-6,4.3-10.5,4.3c-4.6,0-8.1-1.4-10.6-4.2
		c-2.5-2.8-3.7-6.7-3.7-11.8c0-5,1.2-9,3.7-11.7c2.5-2.8,6-4.2,10.6-4.2c4.5,0,7.9,1.4,10.4,4.2
		C1955.2,912.9,1956.4,916.8,1956.4,921.8z M1931.7,921.8c0,4.2,0.9,7.4,2.7,9.6c1.8,2.2,4.4,3.3,7.8,3.3c3.4,0,6-1.1,7.8-3.2
		c1.8-2.2,2.6-5.3,2.6-9.6c0-4.2-0.9-7.3-2.6-9.5s-4.3-3.2-7.7-3.2c-3.4,0-6,1.1-7.8,3.3C1932.6,914.5,1931.7,917.7,1931.7,921.8z"
		/>
	<path class="st5" d="M1988,937.3h-4.1l-16.9-26h-0.2c0.2,3.1,0.3,5.9,0.3,8.4v17.6h-3.3v-31h4.1l16.9,25.9h0.2
		c0-0.4-0.1-1.6-0.2-3.7c-0.1-2.1-0.1-3.6-0.1-4.4v-17.8h3.4V937.3z"/>
</g>
<g class="st1">
	<path class="st2" d="M1078.1,885c-26.6,0-48.2-7.5-65-22.5c-16.7-15-25.1-35-25.1-60.1c0-24,8-43.8,24-59.5
		c16-15.6,38.2-23.5,66.6-23.5c26.3,0,47.7,7.4,64.3,22.1c16.6,14.7,24.8,34.4,24.8,59c0,25.5-8.3,45.9-25,61.3
		C1126,877.3,1104.5,885,1078.1,885z M1077.8,848.6c9.8,0,16.8-3.6,21.1-10.9c4.3-7.3,6.4-20.5,6.4-39.8c0-27.9-8.8-41.9-26.4-41.9
		c-19,0-28.5,15.9-28.5,47.8C1050.4,833.6,1059.5,848.6,1077.8,848.6z"/>
	<path class="st2" d="M1358,882.6h-47.2l-51.7-70.9c-6.6-9.1-13.3-20.1-20.1-33.2c3,10.4,4.6,19.1,4.6,26.3v77.7h-47V722h54.8
		l44,58.8c8.8,11.7,15.4,22,19.9,30.8c-3-13.7-4.4-27.8-4.4-42.1V722h47.2V882.6z"/>
	<path class="st2" d="M1527.6,843.2v39.4h-132.4V722h58v121.2H1527.6z"/>
	<path class="st2" d="M1610,722v160.6h-58V722H1610z"/>
	<path class="st2" d="M1808.7,882.6h-47.2l-51.7-70.9c-6.6-9.1-13.3-20.1-20.1-33.2c3,10.4,4.6,19.1,4.6,26.3v77.7h-47V722h54.8
		l44,58.8c8.8,11.7,15.4,22,19.9,30.8c-3-13.7-4.4-27.8-4.4-42.1V722h47.2V882.6z"/>
	<path class="st2" d="M1988,844.2v38.3h-142.1V722H1988v37.1h-85.2v23.3h68.9V818h-68.9v26.2H1988z"/>
</g>
</svg>
